<svg width="420" height="420" viewBox="0 0 420 420" fill="none" xmlns="http://www.w3.org/2000/svg">
<path d="M325 4.05328e-07C324.606 3.53666e-07 324.216 0.0775976 323.852 0.228362C323.488 0.379126 323.157 0.600104 322.879 0.87868C322.6 1.15726 322.379 1.48797 322.228 1.85195C322.078 2.21593 322 2.60603 322 3L325 3V4.05328e-07Z" fill="white"/>
<path d="M328 3C328 2.60603 327.922 2.21593 327.772 1.85195C327.621 1.48797 327.4 1.15726 327.121 0.87868C326.843 0.600104 326.512 0.379126 326.148 0.228362C325.784 0.0775979 325.394 3.41143e-07 325 4.05328e-07V3L328 3Z" fill="white"/>
<path d="M46 49C46 49.394 46.0776 49.7841 46.2284 50.1481C46.3791 50.512 46.6001 50.8427 46.8787 51.1213C47.1573 51.3999 47.488 51.6209 47.852 51.7716C48.2159 51.9224 48.606 52 49 52V49H46Z" fill="white"/>
<path d="M6 95C6 94.606 5.9224 94.2159 5.77164 93.852C5.62087 93.488 5.3999 93.1573 5.12132 92.8787C4.84274 92.6001 4.51203 92.3791 4.14805 92.2284C3.78407 92.0776 3.39397 92 3 92L3 95H6Z" fill="white"/>
<path d="M3 52C3.39397 52 3.78407 51.9224 4.14805 51.7716C4.51203 51.6209 4.84274 51.3999 5.12132 51.1213C5.3999 50.8427 5.62087 50.512 5.77164 50.1481C5.9224 49.7841 6 49.394 6 49H3V52Z" fill="white"/>
<path d="M49 92C48.606 92 48.2159 92.0776 47.8519 92.2284C47.488 92.3791 47.1573 92.6001 46.8787 92.8787C46.6001 93.1573 46.3791 93.488 46.2284 93.852C46.0776 94.2159 46 94.606 46 95H49V92Z" fill="white"/>
<path d="M92 49C92 49.394 92.0776 49.7841 92.2284 50.1481C92.3791 50.512 92.6001 50.8427 92.8787 51.1213C93.1573 51.3999 93.488 51.6209 93.852 51.7716C94.2159 51.9224 94.606 52 95 52V49H92Z" fill="white"/>
<path d="M52 95C52 94.606 51.9224 94.2159 51.7716 93.852C51.6209 93.488 51.3999 93.1573 51.1213 92.8787C50.8427 92.6001 50.512 92.3791 50.1481 92.2284C49.7841 92.0776 49.394 92 49 92V95H52Z" fill="white"/>
<path d="M49 52C49.394 52 49.7841 51.9224 50.1481 51.7716C50.512 51.6209 50.8427 51.3999 51.1213 51.1213C51.3999 50.8427 51.6209 50.512 51.7716 50.1481C51.9224 49.7841 52 49.394 52 49H49V52Z" fill="white"/>
<path d="M95 92C94.606 92 94.2159 92.0776 93.852 92.2284C93.488 92.3791 93.1573 92.6001 92.8787 92.8787C92.6001 93.1573 92.3791 93.488 92.2284 93.852C92.0776 94.2159 92 94.606 92 95H95V92Z" fill="white"/>
<path d="M46 3C46 3.39397 46.0776 3.78407 46.2284 4.14805C46.3791 4.51203 46.6001 4.84275 46.8787 5.12132C47.1573 5.3999 47.488 5.62088 47.852 5.77164C48.2159 5.9224 48.606 6 49 6V3L46 3Z" fill="white"/>
<path d="M6 49C6 48.606 5.9224 48.2159 5.77164 47.8519C5.62087 47.488 5.3999 47.1573 5.12132 46.8787C4.84274 46.6001 4.51203 46.3791 4.14805 46.2284C3.78407 46.0776 3.39397 46 3 46L3 49H6Z" fill="white"/>
<path d="M3 6C3.39397 6 3.78407 5.9224 4.14805 5.77164C4.51203 5.62088 4.84274 5.3999 5.12132 5.12132C5.3999 4.84275 5.62087 4.51203 5.77164 4.14805C5.9224 3.78407 6 3.39397 6 3L3 3V6Z" fill="white"/>
<path d="M49 46C48.606 46 48.2159 46.0776 47.8519 46.2284C47.488 46.3791 47.1573 46.6001 46.8787 46.8787C46.6001 47.1573 46.3791 47.488 46.2284 47.852C46.0776 48.2159 46 48.606 46 49H49V46Z" fill="white"/>
<path d="M92 3C92 3.39397 92.0776 3.78407 92.2284 4.14805C92.3791 4.51203 92.6001 4.84275 92.8787 5.12132C93.1573 5.3999 93.488 5.62088 93.852 5.77164C94.2159 5.9224 94.606 6 95 6V3L92 3Z" fill="white"/>
<path d="M52 49C52 48.606 51.9224 48.2159 51.7716 47.8519C51.6209 47.488 51.3999 47.1573 51.1213 46.8787C50.8427 46.6001 50.512 46.3791 50.1481 46.2284C49.7841 46.0776 49.394 46 49 46V49H52Z" fill="white"/>
<path d="M49 6C49.394 6 49.7841 5.9224 50.1481 5.77164C50.512 5.62088 50.8427 5.3999 51.1213 5.12132C51.3999 4.84275 51.6209 4.51203 51.7716 4.14805C51.9224 3.78407 52 3.39397 52 3L49 3V6Z" fill="white"/>
<path d="M95 46C94.606 46 94.2159 46.0776 93.852 46.2284C93.488 46.3791 93.1573 46.6001 92.8787 46.8787C92.6001 47.1573 92.3791 47.488 92.2284 47.852C92.0776 48.2159 92 48.606 92 49H95V46Z" fill="white"/>
<path d="M138 49C138 49.394 138.078 49.7841 138.228 50.1481C138.379 50.512 138.6 50.8427 138.879 51.1213C139.157 51.3999 139.488 51.6209 139.852 51.7716C140.216 51.9224 140.606 52 141 52V49H138Z" fill="white"/>
<path d="M98 95C98 94.606 97.9224 94.2159 97.7716 93.852C97.6209 93.488 97.3999 93.1573 97.1213 92.8787C96.8427 92.6001 96.512 92.3791 96.148 92.2284C95.7841 92.0776 95.394 92 95 92V95H98Z" fill="white"/>
<path d="M95 52C95.394 52 95.7841 51.9224 96.148 51.7716C96.512 51.6209 96.8427 51.3999 97.1213 51.1213C97.3999 50.8427 97.6209 50.512 97.7716 50.1481C97.9224 49.7841 98 49.394 98 49H95V52Z" fill="white"/>
<path d="M141 92C140.606 92 140.216 92.0776 139.852 92.2284C139.488 92.3791 139.157 92.6001 138.879 92.8787C138.6 93.1573 138.379 93.488 138.228 93.852C138.078 94.2159 138 94.606 138 95H141V92Z" fill="white"/>
<path d="M184 49C184 49.394 184.078 49.7841 184.228 50.1481C184.379 50.512 184.6 50.8427 184.879 51.1213C185.157 51.3999 185.488 51.6209 185.852 51.7716C186.216 51.9224 186.606 52 187 52V49H184Z" fill="white"/>
<path d="M144 95C144 94.606 143.922 94.2159 143.772 93.852C143.621 93.488 143.4 93.1573 143.121 92.8787C142.843 92.6001 142.512 92.3791 142.148 92.2284C141.784 92.0776 141.394 92 141 92V95H144Z" fill="white"/>
<path d="M141 52C141.394 52 141.784 51.9224 142.148 51.7716C142.512 51.6209 142.843 51.3999 143.121 51.1213C143.4 50.8427 143.621 50.512 143.772 50.1481C143.922 49.7841 144 49.394 144 49H141V52Z" fill="white"/>
<path d="M187 92C186.606 92 186.216 92.0776 185.852 92.2284C185.488 92.3791 185.157 92.6001 184.879 92.8787C184.6 93.1573 184.379 93.488 184.228 93.852C184.078 94.2159 184 94.606 184 95H187V92Z" fill="white"/>
<path d="M138 3C138 3.39397 138.078 3.78407 138.228 4.14805C138.379 4.51203 138.6 4.84275 138.879 5.12132C139.157 5.3999 139.488 5.62088 139.852 5.77164C140.216 5.9224 140.606 6 141 6V3L138 3Z" fill="white"/>
<path d="M98 49C98 48.606 97.9224 48.2159 97.7716 47.8519C97.6209 47.488 97.3999 47.1573 97.1213 46.8787C96.8427 46.6001 96.512 46.3791 96.148 46.2284C95.7841 46.0776 95.394 46 95 46V49H98Z" fill="white"/>
<path d="M95 6C95.394 6 95.7841 5.9224 96.148 5.77164C96.512 5.62088 96.8427 5.3999 97.1213 5.12132C97.3999 4.84275 97.6209 4.51203 97.7716 4.14805C97.9224 3.78407 98 3.39397 98 3L95 3V6Z" fill="white"/>
<path d="M141 46C140.606 46 140.216 46.0776 139.852 46.2284C139.488 46.3791 139.157 46.6001 138.879 46.8787C138.6 47.1573 138.379 47.488 138.228 47.852C138.078 48.2159 138 48.606 138 49H141V46Z" fill="white"/>
<path d="M184 3C184 3.39397 184.078 3.78407 184.228 4.14805C184.379 4.51203 184.6 4.84275 184.879 5.12132C185.157 5.3999 185.488 5.62088 185.852 5.77164C186.216 5.9224 186.606 6 187 6V3L184 3Z" fill="white"/>
<path d="M144 49C144 48.606 143.922 48.2159 143.772 47.8519C143.621 47.488 143.4 47.1573 143.121 46.8787C142.843 46.6001 142.512 46.3791 142.148 46.2284C141.784 46.0776 141.394 46 141 46V49H144Z" fill="white"/>
<path d="M141 6C141.394 6 141.784 5.9224 142.148 5.77164C142.512 5.62088 142.843 5.3999 143.121 5.12132C143.4 4.84275 143.621 4.51203 143.772 4.14805C143.922 3.78407 144 3.39397 144 3L141 3V6Z" fill="white"/>
<path d="M187 46C186.606 46 186.216 46.0776 185.852 46.2284C185.488 46.3791 185.157 46.6001 184.879 46.8787C184.6 47.1573 184.379 47.488 184.228 47.852C184.078 48.2159 184 48.606 184 49H187V46Z" fill="white"/>
<path d="M46 141C46 141.394 46.0776 141.784 46.2284 142.148C46.3791 142.512 46.6001 142.843 46.8787 143.121C47.1573 143.4 47.488 143.621 47.852 143.772C48.2159 143.922 48.606 144 49 144V141H46Z" fill="white"/>
<path d="M6 187C6 186.606 5.9224 186.216 5.77164 185.852C5.62087 185.488 5.3999 185.157 5.12132 184.879C4.84274 184.6 4.51203 184.379 4.14805 184.228C3.78407 184.078 3.39397 184 3 184L3 187H6Z" fill="white"/>
<path d="M3 144C3.39397 144 3.78407 143.922 4.14805 143.772C4.51203 143.621 4.84274 143.4 5.12132 143.121C5.3999 142.843 5.62087 142.512 5.77164 142.148C5.9224 141.784 6 141.394 6 141H3V144Z" fill="white"/>
<path d="M49 184C48.606 184 48.2159 184.078 47.8519 184.228C47.488 184.379 47.1573 184.6 46.8787 184.879C46.6001 185.157 46.3791 185.488 46.2284 185.852C46.0776 186.216 46 186.606 46 187H49V184Z" fill="white"/>
<path d="M92 141C92 141.394 92.0776 141.784 92.2284 142.148C92.3791 142.512 92.6001 142.843 92.8787 143.121C93.1573 143.4 93.488 143.621 93.852 143.772C94.2159 143.922 94.606 144 95 144V141H92Z" fill="white"/>
<path d="M52 187C52 186.606 51.9224 186.216 51.7716 185.852C51.6209 185.488 51.3999 185.157 51.1213 184.879C50.8427 184.6 50.512 184.379 50.1481 184.228C49.7841 184.078 49.394 184 49 184V187H52Z" fill="white"/>
<path d="M49 144C49.394 144 49.7841 143.922 50.1481 143.772C50.512 143.621 50.8427 143.4 51.1213 143.121C51.3999 142.843 51.6209 142.512 51.7716 142.148C51.9224 141.784 52 141.394 52 141H49V144Z" fill="white"/>
<path d="M95 184C94.606 184 94.2159 184.078 93.852 184.228C93.488 184.379 93.1573 184.6 92.8787 184.879C92.6001 185.157 92.3791 185.488 92.2284 185.852C92.0776 186.216 92 186.606 92 187H95V184Z" fill="white"/>
<path d="M46 95C46 95.394 46.0776 95.7841 46.2284 96.148C46.3791 96.512 46.6001 96.8427 46.8787 97.1213C47.1573 97.3999 47.488 97.6209 47.852 97.7716C48.2159 97.9224 48.606 98 49 98V95H46Z" fill="white"/>
<path d="M6 141C6 140.606 5.9224 140.216 5.77164 139.852C5.62087 139.488 5.3999 139.157 5.12132 138.879C4.84274 138.6 4.51203 138.379 4.14805 138.228C3.78407 138.078 3.39397 138 3 138L3 141H6Z" fill="white"/>
<path d="M3 98C3.39397 98 3.78407 97.9224 4.14805 97.7716C4.51203 97.6209 4.84274 97.3999 5.12132 97.1213C5.3999 96.8427 5.62087 96.512 5.77164 96.148C5.9224 95.7841 6 95.394 6 95H3V98Z" fill="white"/>
<path d="M49 138C48.606 138 48.2159 138.078 47.8519 138.228C47.488 138.379 47.1573 138.6 46.8787 138.879C46.6001 139.157 46.3791 139.488 46.2284 139.852C46.0776 140.216 46 140.606 46 141H49V138Z" fill="white"/>
<path d="M92 95C92 95.394 92.0776 95.7841 92.2284 96.148C92.3791 96.512 92.6001 96.8427 92.8787 97.1213C93.1573 97.3999 93.488 97.6209 93.852 97.7716C94.2159 97.9224 94.606 98 95 98V95H92Z" fill="white"/>
<path d="M52 141C52 140.606 51.9224 140.216 51.7716 139.852C51.6209 139.488 51.3999 139.157 51.1213 138.879C50.8427 138.6 50.512 138.379 50.1481 138.228C49.7841 138.078 49.394 138 49 138V141H52Z" fill="white"/>
<path d="M49 98C49.394 98 49.7841 97.9224 50.1481 97.7716C50.512 97.6209 50.8427 97.3999 51.1213 97.1213C51.3999 96.8427 51.6209 96.512 51.7716 96.148C51.9224 95.7841 52 95.394 52 95H49V98Z" fill="white"/>
<path d="M95 138C94.606 138 94.2159 138.078 93.852 138.228C93.488 138.379 93.1573 138.6 92.8787 138.879C92.6001 139.157 92.3791 139.488 92.2284 139.852C92.0776 140.216 92 140.606 92 141H95V138Z" fill="white"/>
<path d="M138 141C138 141.394 138.078 141.784 138.228 142.148C138.379 142.512 138.6 142.843 138.879 143.121C139.157 143.4 139.488 143.621 139.852 143.772C140.216 143.922 140.606 144 141 144V141H138Z" fill="white"/>
<path d="M98 187C98 186.606 97.9224 186.216 97.7716 185.852C97.6209 185.488 97.3999 185.157 97.1213 184.879C96.8427 184.6 96.512 184.379 96.148 184.228C95.7841 184.078 95.394 184 95 184V187H98Z" fill="white"/>
<path d="M95 144C95.394 144 95.7841 143.922 96.148 143.772C96.512 143.621 96.8427 143.4 97.1213 143.121C97.3999 142.843 97.6209 142.512 97.7716 142.148C97.9224 141.784 98 141.394 98 141H95V144Z" fill="white"/>
<path d="M141 184C140.606 184 140.216 184.078 139.852 184.228C139.488 184.379 139.157 184.6 138.879 184.879C138.6 185.157 138.379 185.488 138.228 185.852C138.078 186.216 138 186.606 138 187H141V184Z" fill="white"/>
<path d="M184 141C184 141.394 184.078 141.784 184.228 142.148C184.379 142.512 184.6 142.843 184.879 143.121C185.157 143.4 185.488 143.621 185.852 143.772C186.216 143.922 186.606 144 187 144V141H184Z" fill="white"/>
<path d="M144 187C144 186.606 143.922 186.216 143.772 185.852C143.621 185.488 143.4 185.157 143.121 184.879C142.843 184.6 142.512 184.379 142.148 184.228C141.784 184.078 141.394 184 141 184V187H144Z" fill="white"/>
<path d="M141 144C141.394 144 141.784 143.922 142.148 143.772C142.512 143.621 142.843 143.4 143.121 143.121C143.4 142.843 143.621 142.512 143.772 142.148C143.922 141.784 144 141.394 144 141H141V144Z" fill="white"/>
<path d="M187 184C186.606 184 186.216 184.078 185.852 184.228C185.488 184.379 185.157 184.6 184.879 184.879C184.6 185.157 184.379 185.488 184.228 185.852C184.078 186.216 184 186.606 184 187H187V184Z" fill="white"/>
<path d="M138 95C138 95.394 138.078 95.7841 138.228 96.148C138.379 96.512 138.6 96.8427 138.879 97.1213C139.157 97.3999 139.488 97.6209 139.852 97.7716C140.216 97.9224 140.606 98 141 98V95H138Z" fill="white"/>
<path d="M98 141C98 140.606 97.9224 140.216 97.7716 139.852C97.6209 139.488 97.3999 139.157 97.1213 138.879C96.8427 138.6 96.512 138.379 96.148 138.228C95.7841 138.078 95.394 138 95 138V141H98Z" fill="white"/>
<path d="M95 98C95.394 98 95.7841 97.9224 96.148 97.7716C96.512 97.6209 96.8427 97.3999 97.1213 97.1213C97.3999 96.8427 97.6209 96.512 97.7716 96.148C97.9224 95.7841 98 95.394 98 95H95V98Z" fill="white"/>
<path d="M141 138C140.606 138 140.216 138.078 139.852 138.228C139.488 138.379 139.157 138.6 138.879 138.879C138.6 139.157 138.379 139.488 138.228 139.852C138.078 140.216 138 140.606 138 141H141V138Z" fill="white"/>
<path d="M184 95C184 95.394 184.078 95.7841 184.228 96.148C184.379 96.512 184.6 96.8427 184.879 97.1213C185.157 97.3999 185.488 97.6209 185.852 97.7716C186.216 97.9224 186.606 98 187 98V95H184Z" fill="white"/>
<path d="M144 141C144 140.606 143.922 140.216 143.772 139.852C143.621 139.488 143.4 139.157 143.121 138.879C142.843 138.6 142.512 138.379 142.148 138.228C141.784 138.078 141.394 138 141 138V141H144Z" fill="white"/>
<path d="M141 98C141.394 98 141.784 97.9224 142.148 97.7716C142.512 97.6209 142.843 97.3999 143.121 97.1213C143.4 96.8427 143.621 96.512 143.772 96.148C143.922 95.7841 144 95.394 144 95H141V98Z" fill="white"/>
<path d="M187 138C186.606 138 186.216 138.078 185.852 138.228C185.488 138.379 185.157 138.6 184.879 138.879C184.6 139.157 184.379 139.488 184.228 139.852C184.078 140.216 184 140.606 184 141H187V138Z" fill="white"/>
<path d="M230 49C230 49.394 230.078 49.7841 230.228 50.1481C230.379 50.512 230.6 50.8427 230.879 51.1213C231.157 51.3999 231.488 51.6209 231.852 51.7716C232.216 51.9224 232.606 52 233 52V49H230Z" fill="white"/>
<path d="M190 95C190 94.606 189.922 94.2159 189.772 93.852C189.621 93.488 189.4 93.1573 189.121 92.8787C188.843 92.6001 188.512 92.3791 188.148 92.2284C187.784 92.0776 187.394 92 187 92V95H190Z" fill="white"/>
<path d="M187 52C187.394 52 187.784 51.9224 188.148 51.7716C188.512 51.6209 188.843 51.3999 189.121 51.1213C189.4 50.8427 189.621 50.512 189.772 50.1481C189.922 49.7841 190 49.394 190 49H187V52Z" fill="white"/>
<path d="M233 92C232.606 92 232.216 92.0776 231.852 92.2284C231.488 92.3791 231.157 92.6001 230.879 92.8787C230.6 93.1573 230.379 93.488 230.228 93.852C230.078 94.2159 230 94.606 230 95H233V92Z" fill="white"/>
<path d="M276 49C276 49.394 276.078 49.7841 276.228 50.1481C276.379 50.512 276.6 50.8427 276.879 51.1213C277.157 51.3999 277.488 51.6209 277.852 51.7716C278.216 51.9224 278.606 52 279 52V49H276Z" fill="white"/>
<path d="M236 95C236 94.606 235.922 94.2159 235.772 93.852C235.621 93.488 235.4 93.1573 235.121 92.8787C234.843 92.6001 234.512 92.3791 234.148 92.2284C233.784 92.0776 233.394 92 233 92V95H236Z" fill="white"/>
<path d="M233 52C233.394 52 233.784 51.9224 234.148 51.7716C234.512 51.6209 234.843 51.3999 235.121 51.1213C235.4 50.8427 235.621 50.512 235.772 50.1481C235.922 49.7841 236 49.394 236 49H233V52Z" fill="white"/>
<path d="M279 92C278.606 92 278.216 92.0776 277.852 92.2284C277.488 92.3791 277.157 92.6001 276.879 92.8787C276.6 93.1573 276.379 93.488 276.228 93.852C276.078 94.2159 276 94.606 276 95H279V92Z" fill="white"/>
<path d="M230 3C230 3.39397 230.078 3.78407 230.228 4.14805C230.379 4.51203 230.6 4.84275 230.879 5.12132C231.157 5.3999 231.488 5.62088 231.852 5.77164C232.216 5.9224 232.606 6 233 6V3L230 3Z" fill="white"/>
<path d="M190 49C190 48.606 189.922 48.2159 189.772 47.8519C189.621 47.488 189.4 47.1573 189.121 46.8787C188.843 46.6001 188.512 46.3791 188.148 46.2284C187.784 46.0776 187.394 46 187 46V49H190Z" fill="white"/>
<path d="M187 6C187.394 6 187.784 5.9224 188.148 5.77164C188.512 5.62088 188.843 5.3999 189.121 5.12132C189.4 4.84275 189.621 4.51203 189.772 4.14805C189.922 3.78407 190 3.39397 190 3L187 3V6Z" fill="white"/>
<path d="M233 46C232.606 46 232.216 46.0776 231.852 46.2284C231.488 46.3791 231.157 46.6001 230.879 46.8787C230.6 47.1573 230.379 47.488 230.228 47.852C230.078 48.2159 230 48.606 230 49H233V46Z" fill="white"/>
<path d="M276 3C276 3.39397 276.078 3.78407 276.228 4.14805C276.379 4.51203 276.6 4.84275 276.879 5.12132C277.157 5.3999 277.488 5.62088 277.852 5.77164C278.216 5.9224 278.606 6 279 6V3L276 3Z" fill="white"/>
<path d="M236 49C236 48.606 235.922 48.2159 235.772 47.8519C235.621 47.488 235.4 47.1573 235.121 46.8787C234.843 46.6001 234.512 46.3791 234.148 46.2284C233.784 46.0776 233.394 46 233 46V49H236Z" fill="white"/>
<path d="M233 6C233.394 6 233.784 5.9224 234.148 5.77164C234.512 5.62088 234.843 5.3999 235.121 5.12132C235.4 4.84275 235.621 4.51203 235.772 4.14805C235.922 3.78407 236 3.39397 236 3L233 3V6Z" fill="white"/>
<path d="M279 46C278.606 46 278.216 46.0776 277.852 46.2284C277.488 46.3791 277.157 46.6001 276.879 46.8787C276.6 47.1573 276.379 47.488 276.228 47.852C276.078 48.2159 276 48.606 276 49H279V46Z" fill="white"/>
<path d="M322 49C322 49.394 322.078 49.7841 322.228 50.1481C322.379 50.512 322.6 50.8427 322.879 51.1213C323.157 51.3999 323.488 51.6209 323.852 51.7716C324.216 51.9224 324.606 52 325 52V49H322Z" fill="white"/>
<path d="M282 95C282 94.606 281.922 94.2159 281.772 93.852C281.621 93.488 281.4 93.1573 281.121 92.8787C280.843 92.6001 280.512 92.3791 280.148 92.2284C279.784 92.0776 279.394 92 279 92V95H282Z" fill="white"/>
<path d="M279 52C279.394 52 279.784 51.9224 280.148 51.7716C280.512 51.6209 280.843 51.3999 281.121 51.1213C281.4 50.8427 281.621 50.512 281.772 50.1481C281.922 49.7841 282 49.394 282 49H279V52Z" fill="white"/>
<path d="M325 92C324.606 92 324.216 92.0776 323.852 92.2284C323.488 92.3791 323.157 92.6001 322.879 92.8787C322.6 93.1573 322.379 93.488 322.228 93.852C322.078 94.2159 322 94.606 322 95H325V92Z" fill="white"/>
<path d="M368 49C368 49.394 368.078 49.7841 368.228 50.1481C368.379 50.512 368.6 50.8427 368.879 51.1213C369.157 51.3999 369.488 51.6209 369.852 51.7716C370.216 51.9224 370.606 52 371 52V49H368Z" fill="white"/>
<path d="M328 95C328 94.606 327.922 94.2159 327.772 93.852C327.621 93.488 327.4 93.1573 327.121 92.8787C326.843 92.6001 326.512 92.3791 326.148 92.2284C325.784 92.0776 325.394 92 325 92V95H328Z" fill="white"/>
<path d="M325 52C325.394 52 325.784 51.9224 326.148 51.7716C326.512 51.6209 326.843 51.3999 327.121 51.1213C327.4 50.8427 327.621 50.512 327.772 50.1481C327.922 49.7841 328 49.394 328 49H325V52Z" fill="white"/>
<path d="M371 92C370.606 92 370.216 92.0776 369.852 92.2284C369.488 92.3791 369.157 92.6001 368.879 92.8787C368.6 93.1573 368.379 93.488 368.228 93.852C368.078 94.2159 368 94.606 368 95H371V92Z" fill="white"/>
<path d="M322 3C322 3.39397 322.078 3.78407 322.228 4.14805C322.379 4.51203 322.6 4.84275 322.879 5.12132C323.157 5.3999 323.488 5.62088 323.852 5.77164C324.216 5.9224 324.606 6 325 6V3L322 3Z" fill="white"/>
<path d="M282 49C282 48.606 281.922 48.2159 281.772 47.8519C281.621 47.488 281.4 47.1573 281.121 46.8787C280.843 46.6001 280.512 46.3791 280.148 46.2284C279.784 46.0776 279.394 46 279 46V49H282Z" fill="white"/>
<path d="M279 6C279.394 6 279.784 5.9224 280.148 5.77164C280.512 5.62088 280.843 5.3999 281.121 5.12132C281.4 4.84275 281.621 4.51203 281.772 4.14805C281.922 3.78407 282 3.39397 282 3L279 3V6Z" fill="white"/>
<path d="M325 46C324.606 46 324.216 46.0776 323.852 46.2284C323.488 46.3791 323.157 46.6001 322.879 46.8787C322.6 47.1573 322.379 47.488 322.228 47.852C322.078 48.2159 322 48.606 322 49H325V46Z" fill="white"/>
<path d="M368 3C368 3.39397 368.078 3.78407 368.228 4.14805C368.379 4.51203 368.6 4.84275 368.879 5.12132C369.157 5.3999 369.488 5.62088 369.852 5.77164C370.216 5.9224 370.606 6 371 6V3L368 3Z" fill="white"/>
<path d="M328 49C328 48.606 327.922 48.2159 327.772 47.8519C327.621 47.488 327.4 47.1573 327.121 46.8787C326.843 46.6001 326.512 46.3791 326.148 46.2284C325.784 46.0776 325.394 46 325 46V49H328Z" fill="white"/>
<path d="M325 6C325.394 6 325.784 5.9224 326.148 5.77164C326.512 5.62088 326.843 5.3999 327.121 5.12132C327.4 4.84275 327.621 4.51203 327.772 4.14805C327.922 3.78407 328 3.39397 328 3L325 3V6Z" fill="white"/>
<path d="M371 46C370.606 46 370.216 46.0776 369.852 46.2284C369.488 46.3791 369.157 46.6001 368.879 46.8787C368.6 47.1573 368.379 47.488 368.228 47.852C368.078 48.2159 368 48.606 368 49H371V46Z" fill="white"/>
<path d="M368 3C368 3.39397 368.078 3.78407 368.228 4.14805C368.379 4.51203 368.6 4.84275 368.879 5.12132C369.157 5.3999 369.488 5.62088 369.852 5.77164C370.216 5.9224 370.606 6 371 6V3L368 3Z" fill="white"/>
<path d="M328 49C328 48.606 327.922 48.2159 327.772 47.8519C327.621 47.488 327.4 47.1573 327.121 46.8787C326.843 46.6001 326.512 46.3791 326.148 46.2284C325.784 46.0776 325.394 46 325 46V49H328Z" fill="white"/>
<path d="M325 6C325.394 6 325.784 5.9224 326.148 5.77164C326.512 5.62088 326.843 5.3999 327.121 5.12132C327.4 4.84275 327.621 4.51203 327.772 4.14805C327.922 3.78407 328 3.39397 328 3L325 3V6Z" fill="white"/>
<path d="M371 46C370.606 46 370.216 46.0776 369.852 46.2284C369.488 46.3791 369.157 46.6001 368.879 46.8787C368.6 47.1573 368.379 47.488 368.228 47.852C368.078 48.2159 368 48.606 368 49H371V46Z" fill="white"/>
<path d="M414 3C414 3.39397 414.078 3.78407 414.228 4.14805C414.379 4.51203 414.6 4.84275 414.879 5.12132C415.157 5.3999 415.488 5.62088 415.852 5.77164C416.216 5.9224 416.606 6 417 6V3L414 3Z" fill="white"/>
<path d="M374 49C374 48.606 373.922 48.2159 373.772 47.8519C373.621 47.488 373.4 47.1573 373.121 46.8787C372.843 46.6001 372.512 46.3791 372.148 46.2284C371.784 46.0776 371.394 46 371 46V49H374Z" fill="white"/>
<path d="M371 6C371.394 6 371.784 5.9224 372.148 5.77164C372.512 5.62088 372.843 5.3999 373.121 5.12132C373.4 4.84275 373.621 4.51203 373.772 4.14805C373.922 3.78407 374 3.39397 374 3L371 3V6Z" fill="white"/>
<path d="M417 46C416.606 46 416.216 46.0776 415.852 46.2284C415.488 46.3791 415.157 46.6001 414.879 46.8787C414.6 47.1573 414.379 47.488 414.228 47.852C414.078 48.2159 414 48.606 414 49H417V46Z" fill="white"/>
<path d="M414 49C414 49.394 414.078 49.7841 414.228 50.1481C414.379 50.512 414.6 50.8427 414.879 51.1213C415.157 51.3999 415.488 51.6209 415.852 51.7716C416.216 51.9224 416.606 52 417 52V49H414Z" fill="white"/>
<path d="M374 95C374 94.606 373.922 94.2159 373.772 93.852C373.621 93.488 373.4 93.1573 373.121 92.8787C372.843 92.6001 372.512 92.3791 372.148 92.2284C371.784 92.0776 371.394 92 371 92V95H374Z" fill="white"/>
<path d="M371 52C371.394 52 371.784 51.9224 372.148 51.7716C372.512 51.6209 372.843 51.3999 373.121 51.1213C373.4 50.8427 373.621 50.512 373.772 50.1481C373.922 49.7841 374 49.394 374 49H371V52Z" fill="white"/>
<path d="M417 92C416.606 92 416.216 92.0776 415.852 92.2284C415.488 92.3791 415.157 92.6001 414.879 92.8787C414.6 93.1573 414.379 93.488 414.228 93.852C414.078 94.2159 414 94.606 414 95H417V92Z" fill="white"/>
<path d="M414 95C414 95.394 414.078 95.7841 414.228 96.148C414.379 96.512 414.6 96.8427 414.879 97.1213C415.157 97.3999 415.488 97.6209 415.852 97.7716C416.216 97.9224 416.606 98 417 98V95H414Z" fill="white"/>
<path d="M374 141C374 140.606 373.922 140.216 373.772 139.852C373.621 139.488 373.4 139.157 373.121 138.879C372.843 138.6 372.512 138.379 372.148 138.228C371.784 138.078 371.394 138 371 138V141H374Z" fill="white"/>
<path d="M371 98C371.394 98 371.784 97.9224 372.148 97.7716C372.512 97.6209 372.843 97.3999 373.121 97.1213C373.4 96.8427 373.621 96.512 373.772 96.148C373.922 95.7841 374 95.394 374 95H371V98Z" fill="white"/>
<path d="M417 138C416.606 138 416.216 138.078 415.852 138.228C415.488 138.379 415.157 138.6 414.879 138.879C414.6 139.157 414.379 139.488 414.228 139.852C414.078 140.216 414 140.606 414 141H417V138Z" fill="white"/>
<path d="M414 141C414 141.394 414.078 141.784 414.228 142.148C414.379 142.512 414.6 142.843 414.879 143.121C415.157 143.4 415.488 143.621 415.852 143.772C416.216 143.922 416.606 144 417 144V141H414Z" fill="white"/>
<path d="M374 187C374 186.606 373.922 186.216 373.772 185.852C373.621 185.488 373.4 185.157 373.121 184.879C372.843 184.6 372.512 184.379 372.148 184.228C371.784 184.078 371.394 184 371 184V187H374Z" fill="white"/>
<path d="M371 144C371.394 144 371.784 143.922 372.148 143.772C372.512 143.621 372.843 143.4 373.121 143.121C373.4 142.843 373.621 142.512 373.772 142.148C373.922 141.784 374 141.394 374 141H371V144Z" fill="white"/>
<path d="M417 184C416.606 184 416.216 184.078 415.852 184.228C415.488 184.379 415.157 184.6 414.879 184.879C414.6 185.157 414.379 185.488 414.228 185.852C414.078 186.216 414 186.606 414 187H417V184Z" fill="white"/>
<path d="M414 187C414 187.394 414.078 187.784 414.228 188.148C414.379 188.512 414.6 188.843 414.879 189.121C415.157 189.4 415.488 189.621 415.852 189.772C416.216 189.922 416.606 190 417 190V187H414Z" fill="white"/>
<path d="M374 233C374 232.606 373.922 232.216 373.772 231.852C373.621 231.488 373.4 231.157 373.121 230.879C372.843 230.6 372.512 230.379 372.148 230.228C371.784 230.078 371.394 230 371 230V233H374Z" fill="white"/>
<path d="M371 190C371.394 190 371.784 189.922 372.148 189.772C372.512 189.621 372.843 189.4 373.121 189.121C373.4 188.843 373.621 188.512 373.772 188.148C373.922 187.784 374 187.394 374 187H371V190Z" fill="white"/>
<path d="M417 230C416.606 230 416.216 230.078 415.852 230.228C415.488 230.379 415.157 230.6 414.879 230.879C414.6 231.157 414.379 231.488 414.228 231.852C414.078 232.216 414 232.606 414 233H417V230Z" fill="white"/>
<path d="M414 233C414 233.394 414.078 233.784 414.228 234.148C414.379 234.512 414.6 234.843 414.879 235.121C415.157 235.4 415.488 235.621 415.852 235.772C416.216 235.922 416.606 236 417 236V233H414Z" fill="white"/>
<path d="M374 279C374 278.606 373.922 278.216 373.772 277.852C373.621 277.488 373.4 277.157 373.121 276.879C372.843 276.6 372.512 276.379 372.148 276.228C371.784 276.078 371.394 276 371 276V279H374Z" fill="white"/>
<path d="M371 236C371.394 236 371.784 235.922 372.148 235.772C372.512 235.621 372.843 235.4 373.121 235.121C373.4 234.843 373.621 234.512 373.772 234.148C373.922 233.784 374 233.394 374 233H371V236Z" fill="white"/>
<path d="M417 276C416.606 276 416.216 276.078 415.852 276.228C415.488 276.379 415.157 276.6 414.879 276.879C414.6 277.157 414.379 277.488 414.228 277.852C414.078 278.216 414 278.606 414 279H417V276Z" fill="white"/>
<path d="M420 279C420 278.606 419.922 278.216 419.772 277.852C419.621 277.488 419.4 277.157 419.121 276.879C418.843 276.6 418.512 276.379 418.148 276.228C417.784 276.078 417.394 276 417 276V279H420Z" fill="white"/>
<path d="M417 282C417.394 282 417.784 281.922 418.148 281.772C418.512 281.621 418.843 281.4 419.121 281.121C419.4 280.843 419.621 280.512 419.772 280.148C419.922 279.784 420 279.394 420 279H417V282Z" fill="white"/>
<path d="M414 279C414 279.394 414.078 279.784 414.228 280.148C414.379 280.512 414.6 280.843 414.879 281.121C415.157 281.4 415.488 281.621 415.852 281.772C416.216 281.922 416.606 282 417 282V279H414Z" fill="white"/>
<path d="M374 325C374 324.606 373.922 324.216 373.772 323.852C373.621 323.488 373.4 323.157 373.121 322.879C372.843 322.6 372.512 322.379 372.148 322.228C371.784 322.078 371.394 322 371 322V325H374Z" fill="white"/>
<path d="M371 282C371.394 282 371.784 281.922 372.148 281.772C372.512 281.621 372.843 281.4 373.121 281.121C373.4 280.843 373.621 280.512 373.772 280.148C373.922 279.784 374 279.394 374 279H371V282Z" fill="white"/>
<path d="M417 322C416.606 322 416.216 322.078 415.852 322.228C415.488 322.379 415.157 322.6 414.879 322.879C414.6 323.157 414.379 323.488 414.228 323.852C414.078 324.216 414 324.606 414 325H417V322Z" fill="white"/>
<path d="M414 325C414 325.394 414.078 325.784 414.228 326.148C414.379 326.512 414.6 326.843 414.879 327.121C415.157 327.4 415.488 327.621 415.852 327.772C416.216 327.922 416.606 328 417 328V325H414Z" fill="white"/>
<path d="M374 371C374 370.606 373.922 370.216 373.772 369.852C373.621 369.488 373.4 369.157 373.121 368.879C372.843 368.6 372.512 368.379 372.148 368.228C371.784 368.078 371.394 368 371 368V371H374Z" fill="white"/>
<path d="M371 328C371.394 328 371.784 327.922 372.148 327.772C372.512 327.621 372.843 327.4 373.121 327.121C373.4 326.843 373.621 326.512 373.772 326.148C373.922 325.784 374 325.394 374 325H371V328Z" fill="white"/>
<path d="M417 368C416.606 368 416.216 368.078 415.852 368.228C415.488 368.379 415.157 368.6 414.879 368.879C414.6 369.157 414.379 369.488 414.228 369.852C414.078 370.216 414 370.606 414 371H417V368Z" fill="white"/>
<path d="M230 141C230 141.394 230.078 141.784 230.228 142.148C230.379 142.512 230.6 142.843 230.879 143.121C231.157 143.4 231.488 143.621 231.852 143.772C232.216 143.922 232.606 144 233 144V141H230Z" fill="white"/>
<path d="M190 187C190 186.606 189.922 186.216 189.772 185.852C189.621 185.488 189.4 185.157 189.121 184.879C188.843 184.6 188.512 184.379 188.148 184.228C187.784 184.078 187.394 184 187 184V187H190Z" fill="white"/>
<path d="M187 144C187.394 144 187.784 143.922 188.148 143.772C188.512 143.621 188.843 143.4 189.121 143.121C189.4 142.843 189.621 142.512 189.772 142.148C189.922 141.784 190 141.394 190 141H187V144Z" fill="white"/>
<path d="M233 184C232.606 184 232.216 184.078 231.852 184.228C231.488 184.379 231.157 184.6 230.879 184.879C230.6 185.157 230.379 185.488 230.228 185.852C230.078 186.216 230 186.606 230 187H233V184Z" fill="white"/>
<path d="M276 141C276 141.394 276.078 141.784 276.228 142.148C276.379 142.512 276.6 142.843 276.879 143.121C277.157 143.4 277.488 143.621 277.852 143.772C278.216 143.922 278.606 144 279 144V141H276Z" fill="white"/>
<path d="M236 187C236 186.606 235.922 186.216 235.772 185.852C235.621 185.488 235.4 185.157 235.121 184.879C234.843 184.6 234.512 184.379 234.148 184.228C233.784 184.078 233.394 184 233 184V187H236Z" fill="white"/>
<path d="M233 144C233.394 144 233.784 143.922 234.148 143.772C234.512 143.621 234.843 143.4 235.121 143.121C235.4 142.843 235.621 142.512 235.772 142.148C235.922 141.784 236 141.394 236 141H233V144Z" fill="white"/>
<path d="M279 184C278.606 184 278.216 184.078 277.852 184.228C277.488 184.379 277.157 184.6 276.879 184.879C276.6 185.157 276.379 185.488 276.228 185.852C276.078 186.216 276 186.606 276 187H279V184Z" fill="white"/>
<path d="M230 95C230 95.394 230.078 95.7841 230.228 96.148C230.379 96.512 230.6 96.8427 230.879 97.1213C231.157 97.3999 231.488 97.6209 231.852 97.7716C232.216 97.9224 232.606 98 233 98V95H230Z" fill="white"/>
<path d="M190 141C190 140.606 189.922 140.216 189.772 139.852C189.621 139.488 189.4 139.157 189.121 138.879C188.843 138.6 188.512 138.379 188.148 138.228C187.784 138.078 187.394 138 187 138V141H190Z" fill="white"/>
<path d="M187 98C187.394 98 187.784 97.9224 188.148 97.7716C188.512 97.6209 188.843 97.3999 189.121 97.1213C189.4 96.8427 189.621 96.512 189.772 96.148C189.922 95.7841 190 95.394 190 95H187V98Z" fill="white"/>
<path d="M233 138C232.606 138 232.216 138.078 231.852 138.228C231.488 138.379 231.157 138.6 230.879 138.879C230.6 139.157 230.379 139.488 230.228 139.852C230.078 140.216 230 140.606 230 141H233V138Z" fill="white"/>
<path d="M276 95C276 95.394 276.078 95.7841 276.228 96.148C276.379 96.512 276.6 96.8427 276.879 97.1213C277.157 97.3999 277.488 97.6209 277.852 97.7716C278.216 97.9224 278.606 98 279 98V95H276Z" fill="white"/>
<path d="M236 141C236 140.606 235.922 140.216 235.772 139.852C235.621 139.488 235.4 139.157 235.121 138.879C234.843 138.6 234.512 138.379 234.148 138.228C233.784 138.078 233.394 138 233 138V141H236Z" fill="white"/>
<path d="M233 98C233.394 98 233.784 97.9224 234.148 97.7716C234.512 97.6209 234.843 97.3999 235.121 97.1213C235.4 96.8427 235.621 96.512 235.772 96.148C235.922 95.7841 236 95.394 236 95H233V98Z" fill="white"/>
<path d="M279 138C278.606 138 278.216 138.078 277.852 138.228C277.488 138.379 277.157 138.6 276.879 138.879C276.6 139.157 276.379 139.488 276.228 139.852C276.078 140.216 276 140.606 276 141H279V138Z" fill="white"/>
<path d="M322 141C322 141.394 322.078 141.784 322.228 142.148C322.379 142.512 322.6 142.843 322.879 143.121C323.157 143.4 323.488 143.621 323.852 143.772C324.216 143.922 324.606 144 325 144V141H322Z" fill="white"/>
<path d="M282 187C282 186.606 281.922 186.216 281.772 185.852C281.621 185.488 281.4 185.157 281.121 184.879C280.843 184.6 280.512 184.379 280.148 184.228C279.784 184.078 279.394 184 279 184V187H282Z" fill="white"/>
<path d="M279 144C279.394 144 279.784 143.922 280.148 143.772C280.512 143.621 280.843 143.4 281.121 143.121C281.4 142.843 281.621 142.512 281.772 142.148C281.922 141.784 282 141.394 282 141H279V144Z" fill="white"/>
<path d="M325 184C324.606 184 324.216 184.078 323.852 184.228C323.488 184.379 323.157 184.6 322.879 184.879C322.6 185.157 322.379 185.488 322.228 185.852C322.078 186.216 322 186.606 322 187H325V184Z" fill="white"/>
<path d="M368 141C368 141.394 368.078 141.784 368.228 142.148C368.379 142.512 368.6 142.843 368.879 143.121C369.157 143.4 369.488 143.621 369.852 143.772C370.216 143.922 370.606 144 371 144V141H368Z" fill="white"/>
<path d="M328 187C328 186.606 327.922 186.216 327.772 185.852C327.621 185.488 327.4 185.157 327.121 184.879C326.843 184.6 326.512 184.379 326.148 184.228C325.784 184.078 325.394 184 325 184V187H328Z" fill="white"/>
<path d="M325 144C325.394 144 325.784 143.922 326.148 143.772C326.512 143.621 326.843 143.4 327.121 143.121C327.4 142.843 327.621 142.512 327.772 142.148C327.922 141.784 328 141.394 328 141H325V144Z" fill="white"/>
<path d="M371 184C370.606 184 370.216 184.078 369.852 184.228C369.488 184.379 369.157 184.6 368.879 184.879C368.6 185.157 368.379 185.488 368.228 185.852C368.078 186.216 368 186.606 368 187H371V184Z" fill="white"/>
<path d="M322 95C322 95.394 322.078 95.7841 322.228 96.148C322.379 96.512 322.6 96.8427 322.879 97.1213C323.157 97.3999 323.488 97.6209 323.852 97.7716C324.216 97.9224 324.606 98 325 98V95H322Z" fill="white"/>
<path d="M282 141C282 140.606 281.922 140.216 281.772 139.852C281.621 139.488 281.4 139.157 281.121 138.879C280.843 138.6 280.512 138.379 280.148 138.228C279.784 138.078 279.394 138 279 138V141H282Z" fill="white"/>
<path d="M279 98C279.394 98 279.784 97.9224 280.148 97.7716C280.512 97.6209 280.843 97.3999 281.121 97.1213C281.4 96.8427 281.621 96.512 281.772 96.148C281.922 95.7841 282 95.394 282 95H279V98Z" fill="white"/>
<path d="M325 138C324.606 138 324.216 138.078 323.852 138.228C323.488 138.379 323.157 138.6 322.879 138.879C322.6 139.157 322.379 139.488 322.228 139.852C322.078 140.216 322 140.606 322 141H325V138Z" fill="white"/>
<path d="M368 95C368 95.394 368.078 95.7841 368.228 96.148C368.379 96.512 368.6 96.8427 368.879 97.1213C369.157 97.3999 369.488 97.6209 369.852 97.7716C370.216 97.9224 370.606 98 371 98V95H368Z" fill="white"/>
<path d="M328 141C328 140.606 327.922 140.216 327.772 139.852C327.621 139.488 327.4 139.157 327.121 138.879C326.843 138.6 326.512 138.379 326.148 138.228C325.784 138.078 325.394 138 325 138V141H328Z" fill="white"/>
<path d="M325 98C325.394 98 325.784 97.9224 326.148 97.7716C326.512 97.6209 326.843 97.3999 327.121 97.1213C327.4 96.8427 327.621 96.512 327.772 96.148C327.922 95.7841 328 95.394 328 95H325V98Z" fill="white"/>
<path d="M371 138C370.606 138 370.216 138.078 369.852 138.228C369.488 138.379 369.157 138.6 368.879 138.879C368.6 139.157 368.379 139.488 368.228 139.852C368.078 140.216 368 140.606 368 141H371V138Z" fill="white"/>
<path d="M46 233C46 233.394 46.0776 233.784 46.2284 234.148C46.3791 234.512 46.6001 234.843 46.8787 235.121C47.1573 235.4 47.488 235.621 47.852 235.772C48.2159 235.922 48.606 236 49 236V233H46Z" fill="white"/>
<path d="M6 279C6 278.606 5.9224 278.216 5.77164 277.852C5.62087 277.488 5.3999 277.157 5.12132 276.879C4.84274 276.6 4.51203 276.379 4.14805 276.228C3.78407 276.078 3.39397 276 3 276L3 279H6Z" fill="white"/>
<path d="M3 236C3.39397 236 3.78407 235.922 4.14805 235.772C4.51203 235.621 4.84274 235.4 5.12132 235.121C5.3999 234.843 5.62087 234.512 5.77164 234.148C5.9224 233.784 6 233.394 6 233H3V236Z" fill="white"/>
<path d="M49 276C48.606 276 48.2159 276.078 47.8519 276.228C47.488 276.379 47.1573 276.6 46.8787 276.879C46.6001 277.157 46.3791 277.488 46.2284 277.852C46.0776 278.216 46 278.606 46 279H49V276Z" fill="white"/>
<path d="M92 233C92 233.394 92.0776 233.784 92.2284 234.148C92.3791 234.512 92.6001 234.843 92.8787 235.121C93.1573 235.4 93.488 235.621 93.852 235.772C94.2159 235.922 94.606 236 95 236V233H92Z" fill="white"/>
<path d="M52 279C52 278.606 51.9224 278.216 51.7716 277.852C51.6209 277.488 51.3999 277.157 51.1213 276.879C50.8427 276.6 50.512 276.379 50.1481 276.228C49.7841 276.078 49.394 276 49 276V279H52Z" fill="white"/>
<path d="M49 236C49.394 236 49.7841 235.922 50.1481 235.772C50.512 235.621 50.8427 235.4 51.1213 235.121C51.3999 234.843 51.6209 234.512 51.7716 234.148C51.9224 233.784 52 233.394 52 233H49V236Z" fill="white"/>
<path d="M95 276C94.606 276 94.2159 276.078 93.852 276.228C93.488 276.379 93.1573 276.6 92.8787 276.879C92.6001 277.157 92.3791 277.488 92.2284 277.852C92.0776 278.216 92 278.606 92 279H95V276Z" fill="white"/>
<path d="M46 187C46 187.394 46.0776 187.784 46.2284 188.148C46.3791 188.512 46.6001 188.843 46.8787 189.121C47.1573 189.4 47.488 189.621 47.852 189.772C48.2159 189.922 48.606 190 49 190V187H46Z" fill="white"/>
<path d="M6 233C6 232.606 5.9224 232.216 5.77164 231.852C5.62087 231.488 5.3999 231.157 5.12132 230.879C4.84274 230.6 4.51203 230.379 4.14805 230.228C3.78407 230.078 3.39397 230 3 230L3 233H6Z" fill="white"/>
<path d="M3 190C3.39397 190 3.78407 189.922 4.14805 189.772C4.51203 189.621 4.84274 189.4 5.12132 189.121C5.3999 188.843 5.62087 188.512 5.77164 188.148C5.9224 187.784 6 187.394 6 187H3V190Z" fill="white"/>
<path d="M49 230C48.606 230 48.2159 230.078 47.8519 230.228C47.488 230.379 47.1573 230.6 46.8787 230.879C46.6001 231.157 46.3791 231.488 46.2284 231.852C46.0776 232.216 46 232.606 46 233H49V230Z" fill="white"/>
<path d="M92 187C92 187.394 92.0776 187.784 92.2284 188.148C92.3791 188.512 92.6001 188.843 92.8787 189.121C93.1573 189.4 93.488 189.621 93.852 189.772C94.2159 189.922 94.606 190 95 190V187H92Z" fill="white"/>
<path d="M52 233C52 232.606 51.9224 232.216 51.7716 231.852C51.6209 231.488 51.3999 231.157 51.1213 230.879C50.8427 230.6 50.512 230.379 50.1481 230.228C49.7841 230.078 49.394 230 49 230V233H52Z" fill="white"/>
<path d="M49 190C49.394 190 49.7841 189.922 50.1481 189.772C50.512 189.621 50.8427 189.4 51.1213 189.121C51.3999 188.843 51.6209 188.512 51.7716 188.148C51.9224 187.784 52 187.394 52 187H49V190Z" fill="white"/>
<path d="M95 230C94.606 230 94.2159 230.078 93.852 230.228C93.488 230.379 93.1573 230.6 92.8787 230.879C92.6001 231.157 92.3791 231.488 92.2284 231.852C92.0776 232.216 92 232.606 92 233H95V230Z" fill="white"/>
<path d="M138 233C138 233.394 138.078 233.784 138.228 234.148C138.379 234.512 138.6 234.843 138.879 235.121C139.157 235.4 139.488 235.621 139.852 235.772C140.216 235.922 140.606 236 141 236V233H138Z" fill="white"/>
<path d="M98 279C98 278.606 97.9224 278.216 97.7716 277.852C97.6209 277.488 97.3999 277.157 97.1213 276.879C96.8427 276.6 96.512 276.379 96.148 276.228C95.7841 276.078 95.394 276 95 276V279H98Z" fill="white"/>
<path d="M95 236C95.394 236 95.7841 235.922 96.148 235.772C96.512 235.621 96.8427 235.4 97.1213 235.121C97.3999 234.843 97.6209 234.512 97.7716 234.148C97.9224 233.784 98 233.394 98 233H95V236Z" fill="white"/>
<path d="M141 276C140.606 276 140.216 276.078 139.852 276.228C139.488 276.379 139.157 276.6 138.879 276.879C138.6 277.157 138.379 277.488 138.228 277.852C138.078 278.216 138 278.606 138 279H141V276Z" fill="white"/>
<path d="M184 233C184 233.394 184.078 233.784 184.228 234.148C184.379 234.512 184.6 234.843 184.879 235.121C185.157 235.4 185.488 235.621 185.852 235.772C186.216 235.922 186.606 236 187 236V233H184Z" fill="white"/>
<path d="M144 279C144 278.606 143.922 278.216 143.772 277.852C143.621 277.488 143.4 277.157 143.121 276.879C142.843 276.6 142.512 276.379 142.148 276.228C141.784 276.078 141.394 276 141 276V279H144Z" fill="white"/>
<path d="M141 236C141.394 236 141.784 235.922 142.148 235.772C142.512 235.621 142.843 235.4 143.121 235.121C143.4 234.843 143.621 234.512 143.772 234.148C143.922 233.784 144 233.394 144 233H141V236Z" fill="white"/>
<path d="M187 276C186.606 276 186.216 276.078 185.852 276.228C185.488 276.379 185.157 276.6 184.879 276.879C184.6 277.157 184.379 277.488 184.228 277.852C184.078 278.216 184 278.606 184 279H187V276Z" fill="white"/>
<path d="M138 187C138 187.394 138.078 187.784 138.228 188.148C138.379 188.512 138.6 188.843 138.879 189.121C139.157 189.4 139.488 189.621 139.852 189.772C140.216 189.922 140.606 190 141 190V187H138Z" fill="white"/>
<path d="M98 233C98 232.606 97.9224 232.216 97.7716 231.852C97.6209 231.488 97.3999 231.157 97.1213 230.879C96.8427 230.6 96.512 230.379 96.148 230.228C95.7841 230.078 95.394 230 95 230V233H98Z" fill="white"/>
<path d="M95 190C95.394 190 95.7841 189.922 96.148 189.772C96.512 189.621 96.8427 189.4 97.1213 189.121C97.3999 188.843 97.6209 188.512 97.7716 188.148C97.9224 187.784 98 187.394 98 187H95V190Z" fill="white"/>
<path d="M141 230C140.606 230 140.216 230.078 139.852 230.228C139.488 230.379 139.157 230.6 138.879 230.879C138.6 231.157 138.379 231.488 138.228 231.852C138.078 232.216 138 232.606 138 233H141V230Z" fill="white"/>
<path d="M184 187C184 187.394 184.078 187.784 184.228 188.148C184.379 188.512 184.6 188.843 184.879 189.121C185.157 189.4 185.488 189.621 185.852 189.772C186.216 189.922 186.606 190 187 190V187H184Z" fill="white"/>
<path d="M144 233C144 232.606 143.922 232.216 143.772 231.852C143.621 231.488 143.4 231.157 143.121 230.879C142.843 230.6 142.512 230.379 142.148 230.228C141.784 230.078 141.394 230 141 230V233H144Z" fill="white"/>
<path d="M141 190C141.394 190 141.784 189.922 142.148 189.772C142.512 189.621 142.843 189.4 143.121 189.121C143.4 188.843 143.621 188.512 143.772 188.148C143.922 187.784 144 187.394 144 187H141V190Z" fill="white"/>
<path d="M187 230C186.606 230 186.216 230.078 185.852 230.228C185.488 230.379 185.157 230.6 184.879 230.879C184.6 231.157 184.379 231.488 184.228 231.852C184.078 232.216 184 232.606 184 233H187V230Z" fill="white"/>
<path d="M46 325C46 325.394 46.0776 325.784 46.2284 326.148C46.3791 326.512 46.6001 326.843 46.8787 327.121C47.1573 327.4 47.488 327.621 47.852 327.772C48.2159 327.922 48.606 328 49 328V325H46Z" fill="white"/>
<path d="M6 371C6 370.606 5.9224 370.216 5.77164 369.852C5.62087 369.488 5.3999 369.157 5.12132 368.879C4.84274 368.6 4.51203 368.379 4.14805 368.228C3.78407 368.078 3.39397 368 3 368L3 371H6Z" fill="white"/>
<path d="M3 328C3.39397 328 3.78407 327.922 4.14805 327.772C4.51203 327.621 4.84274 327.4 5.12132 327.121C5.3999 326.843 5.62087 326.512 5.77164 326.148C5.9224 325.784 6 325.394 6 325H3V328Z" fill="white"/>
<path d="M49 368C48.606 368 48.2159 368.078 47.8519 368.228C47.488 368.379 47.1573 368.6 46.8787 368.879C46.6001 369.157 46.3791 369.488 46.2284 369.852C46.0776 370.216 46 370.606 46 371H49V368Z" fill="white"/>
<path d="M46 371C46 371.394 46.0776 371.784 46.2284 372.148C46.3791 372.512 46.6001 372.843 46.8787 373.121C47.1573 373.4 47.488 373.621 47.852 373.772C48.2159 373.922 48.606 374 49 374V371H46Z" fill="white"/>
<path d="M6 417C6 416.606 5.9224 416.216 5.77164 415.852C5.62087 415.488 5.3999 415.157 5.12132 414.879C4.84274 414.6 4.51203 414.379 4.14805 414.228C3.78407 414.078 3.39397 414 3 414L3 417H6Z" fill="white"/>
<path d="M3 374C3.39397 374 3.78407 373.922 4.14805 373.772C4.51203 373.621 4.84274 373.4 5.12132 373.121C5.3999 372.843 5.62087 372.512 5.77164 372.148C5.9224 371.784 6 371.394 6 371H3V374Z" fill="white"/>
<path d="M49 414C48.606 414 48.2159 414.078 47.8519 414.228C47.488 414.379 47.1573 414.6 46.8787 414.879C46.6001 415.157 46.3791 415.488 46.2284 415.852C46.0776 416.216 46 416.606 46 417H49V414Z" fill="white"/>
<path d="M92 371C92 371.394 92.0776 371.784 92.2284 372.148C92.3791 372.512 92.6001 372.843 92.8787 373.121C93.1573 373.4 93.488 373.621 93.852 373.772C94.2159 373.922 94.606 374 95 374V371H92Z" fill="white"/>
<path d="M52 417C52 416.606 51.9224 416.216 51.7716 415.852C51.6209 415.488 51.3999 415.157 51.1213 414.879C50.8427 414.6 50.512 414.379 50.1481 414.228C49.7841 414.078 49.394 414 49 414V417H52Z" fill="white"/>
<path d="M49 374C49.394 374 49.7841 373.922 50.1481 373.772C50.512 373.621 50.8427 373.4 51.1213 373.121C51.3999 372.843 51.6209 372.512 51.7716 372.148C51.9224 371.784 52 371.394 52 371H49V374Z" fill="white"/>
<path d="M95 414C94.606 414 94.2159 414.078 93.852 414.228C93.488 414.379 93.1573 414.6 92.8787 414.879C92.6001 415.157 92.3791 415.488 92.2284 415.852C92.0776 416.216 92 416.606 92 417H95V414Z" fill="white"/>
<path d="M138 371C138 371.394 138.078 371.784 138.228 372.148C138.379 372.512 138.6 372.843 138.879 373.121C139.157 373.4 139.488 373.621 139.852 373.772C140.216 373.922 140.606 374 141 374V371H138Z" fill="white"/>
<path d="M98 417C98 416.606 97.9224 416.216 97.7716 415.852C97.6209 415.488 97.3999 415.157 97.1213 414.879C96.8427 414.6 96.512 414.379 96.148 414.228C95.7841 414.078 95.394 414 95 414V417H98Z" fill="white"/>
<path d="M95 374C95.394 374 95.7841 373.922 96.148 373.772C96.512 373.621 96.8427 373.4 97.1213 373.121C97.3999 372.843 97.6209 372.512 97.7716 372.148C97.9224 371.784 98 371.394 98 371H95V374Z" fill="white"/>
<path d="M141 414C140.606 414 140.216 414.078 139.852 414.228C139.488 414.379 139.157 414.6 138.879 414.879C138.6 415.157 138.379 415.488 138.228 415.852C138.078 416.216 138 416.606 138 417H141V414Z" fill="white"/>
<path d="M184 371C184 371.394 184.078 371.784 184.228 372.148C184.379 372.512 184.6 372.843 184.879 373.121C185.157 373.4 185.488 373.621 185.852 373.772C186.216 373.922 186.606 374 187 374V371H184Z" fill="white"/>
<path d="M144 417C144 416.606 143.922 416.216 143.772 415.852C143.621 415.488 143.4 415.157 143.121 414.879C142.843 414.6 142.512 414.379 142.148 414.228C141.784 414.078 141.394 414 141 414V417H144Z" fill="white"/>
<path d="M141 374C141.394 374 141.784 373.922 142.148 373.772C142.512 373.621 142.843 373.4 143.121 373.121C143.4 372.843 143.621 372.512 143.772 372.148C143.922 371.784 144 371.394 144 371H141V374Z" fill="white"/>
<path d="M187 414C186.606 414 186.216 414.078 185.852 414.228C185.488 414.379 185.157 414.6 184.879 414.879C184.6 415.157 184.379 415.488 184.228 415.852C184.078 416.216 184 416.606 184 417H187V414Z" fill="white"/>
<path d="M230 371C230 371.394 230.078 371.784 230.228 372.148C230.379 372.512 230.6 372.843 230.879 373.121C231.157 373.4 231.488 373.621 231.852 373.772C232.216 373.922 232.606 374 233 374V371H230Z" fill="white"/>
<path d="M190 417C190 416.606 189.922 416.216 189.772 415.852C189.621 415.488 189.4 415.157 189.121 414.879C188.843 414.6 188.512 414.379 188.148 414.228C187.784 414.078 187.394 414 187 414V417H190Z" fill="white"/>
<path d="M187 374C187.394 374 187.784 373.922 188.148 373.772C188.512 373.621 188.843 373.4 189.121 373.121C189.4 372.843 189.621 372.512 189.772 372.148C189.922 371.784 190 371.394 190 371H187V374Z" fill="white"/>
<path d="M233 414C232.606 414 232.216 414.078 231.852 414.228C231.488 414.379 231.157 414.6 230.879 414.879C230.6 415.157 230.379 415.488 230.228 415.852C230.078 416.216 230 416.606 230 417H233V414Z" fill="white"/>
<path d="M276 371C276 371.394 276.078 371.784 276.228 372.148C276.379 372.512 276.6 372.843 276.879 373.121C277.157 373.4 277.488 373.621 277.852 373.772C278.216 373.922 278.606 374 279 374V371H276Z" fill="white"/>
<path d="M236 417C236 416.606 235.922 416.216 235.772 415.852C235.621 415.488 235.4 415.157 235.121 414.879C234.843 414.6 234.512 414.379 234.148 414.228C233.784 414.078 233.394 414 233 414V417H236Z" fill="white"/>
<path d="M233 374C233.394 374 233.784 373.922 234.148 373.772C234.512 373.621 234.843 373.4 235.121 373.121C235.4 372.843 235.621 372.512 235.772 372.148C235.922 371.784 236 371.394 236 371H233V374Z" fill="white"/>
<path d="M279 414C278.606 414 278.216 414.078 277.852 414.228C277.488 414.379 277.157 414.6 276.879 414.879C276.6 415.157 276.379 415.488 276.228 415.852C276.078 416.216 276 416.606 276 417H279V414Z" fill="white"/>
<path d="M322 371C322 371.394 322.078 371.784 322.228 372.148C322.379 372.512 322.6 372.843 322.879 373.121C323.157 373.4 323.488 373.621 323.852 373.772C324.216 373.922 324.606 374 325 374V371H322Z" fill="white"/>
<path d="M282 417C282 416.606 281.922 416.216 281.772 415.852C281.621 415.488 281.4 415.157 281.121 414.879C280.843 414.6 280.512 414.379 280.148 414.228C279.784 414.078 279.394 414 279 414V417H282Z" fill="white"/>
<path d="M279 374C279.394 374 279.784 373.922 280.148 373.772C280.512 373.621 280.843 373.4 281.121 373.121C281.4 372.843 281.621 372.512 281.772 372.148C281.922 371.784 282 371.394 282 371H279V374Z" fill="white"/>
<path d="M325 414C324.606 414 324.216 414.078 323.852 414.228C323.488 414.379 323.157 414.6 322.879 414.879C322.6 415.157 322.379 415.488 322.228 415.852C322.078 416.216 322 416.606 322 417H325V414Z" fill="white"/>
<path d="M368 371C368 371.394 368.078 371.784 368.228 372.148C368.379 372.512 368.6 372.843 368.879 373.121C369.157 373.4 369.488 373.621 369.852 373.772C370.216 373.922 370.606 374 371 374V371H368Z" fill="white"/>
<path d="M328 417C328 416.606 327.922 416.216 327.772 415.852C327.621 415.488 327.4 415.157 327.121 414.879C326.843 414.6 326.512 414.379 326.148 414.228C325.784 414.078 325.394 414 325 414V417H328Z" fill="white"/>
<path d="M325 374C325.394 374 325.784 373.922 326.148 373.772C326.512 373.621 326.843 373.4 327.121 373.121C327.4 372.843 327.621 372.512 327.772 372.148C327.922 371.784 328 371.394 328 371H325V374Z" fill="white"/>
<path d="M371 414C370.606 414 370.216 414.078 369.852 414.228C369.488 414.379 369.157 414.6 368.879 414.879C368.6 415.157 368.379 415.488 368.228 415.852C368.078 416.216 368 416.606 368 417H371V414Z" fill="white"/>
<path d="M414 371C414 371.394 414.078 371.784 414.228 372.148C414.379 372.512 414.6 372.843 414.879 373.121C415.157 373.4 415.488 373.621 415.852 373.772C416.216 373.922 416.606 374 417 374V371H414Z" fill="white"/>
<path d="M374 417C374 416.606 373.922 416.216 373.772 415.852C373.621 415.488 373.4 415.157 373.121 414.879C372.843 414.6 372.512 414.379 372.148 414.228C371.784 414.078 371.394 414 371 414V417H374Z" fill="white"/>
<path d="M371 374C371.394 374 371.784 373.922 372.148 373.772C372.512 373.621 372.843 373.4 373.121 373.121C373.4 372.843 373.621 372.512 373.772 372.148C373.922 371.784 374 371.394 374 371H371V374Z" fill="white"/>
<path d="M417 414C416.606 414 416.216 414.078 415.852 414.228C415.488 414.379 415.157 414.6 414.879 414.879C414.6 415.157 414.379 415.488 414.228 415.852C414.078 416.216 414 416.606 414 417H417V414Z" fill="white"/>
<path d="M92 325C92 325.394 92.0776 325.784 92.2284 326.148C92.3791 326.512 92.6001 326.843 92.8787 327.121C93.1573 327.4 93.488 327.621 93.852 327.772C94.2159 327.922 94.606 328 95 328V325H92Z" fill="white"/>
<path d="M52 371C52 370.606 51.9224 370.216 51.7716 369.852C51.6209 369.488 51.3999 369.157 51.1213 368.879C50.8427 368.6 50.512 368.379 50.1481 368.228C49.7841 368.078 49.394 368 49 368V371H52Z" fill="white"/>
<path d="M49 328C49.394 328 49.7841 327.922 50.1481 327.772C50.512 327.621 50.8427 327.4 51.1213 327.121C51.3999 326.843 51.6209 326.512 51.7716 326.148C51.9224 325.784 52 325.394 52 325H49V328Z" fill="white"/>
<path d="M95 368C94.606 368 94.2159 368.078 93.852 368.228C93.488 368.379 93.1573 368.6 92.8787 368.879C92.6001 369.157 92.3791 369.488 92.2284 369.852C92.0776 370.216 92 370.606 92 371H95V368Z" fill="white"/>
<path d="M46 279C46 279.394 46.0776 279.784 46.2284 280.148C46.3791 280.512 46.6001 280.843 46.8787 281.121C47.1573 281.4 47.488 281.621 47.852 281.772C48.2159 281.922 48.606 282 49 282V279H46Z" fill="white"/>
<path d="M6 325C6 324.606 5.9224 324.216 5.77164 323.852C5.62087 323.488 5.3999 323.157 5.12132 322.879C4.84274 322.6 4.51203 322.379 4.14805 322.228C3.78407 322.078 3.39397 322 3 322L3 325H6Z" fill="white"/>
<path d="M3 282C3.39397 282 3.78407 281.922 4.14805 281.772C4.51203 281.621 4.84274 281.4 5.12132 281.121C5.3999 280.843 5.62087 280.512 5.77164 280.148C5.9224 279.784 6 279.394 6 279H3V282Z" fill="white"/>
<path d="M49 322C48.606 322 48.2159 322.078 47.8519 322.228C47.488 322.379 47.1573 322.6 46.8787 322.879C46.6001 323.157 46.3791 323.488 46.2284 323.852C46.0776 324.216 46 324.606 46 325H49V322Z" fill="white"/>
<path d="M92 279C92 279.394 92.0776 279.784 92.2284 280.148C92.3791 280.512 92.6001 280.843 92.8787 281.121C93.1573 281.4 93.488 281.621 93.852 281.772C94.2159 281.922 94.606 282 95 282V279H92Z" fill="white"/>
<path d="M52 325C52 324.606 51.9224 324.216 51.7716 323.852C51.6209 323.488 51.3999 323.157 51.1213 322.879C50.8427 322.6 50.512 322.379 50.1481 322.228C49.7841 322.078 49.394 322 49 322V325H52Z" fill="white"/>
<path d="M49 282C49.394 282 49.7841 281.922 50.1481 281.772C50.512 281.621 50.8427 281.4 51.1213 281.121C51.3999 280.843 51.6209 280.512 51.7716 280.148C51.9224 279.784 52 279.394 52 279H49V282Z" fill="white"/>
<path d="M95 322C94.606 322 94.2159 322.078 93.852 322.228C93.488 322.379 93.1573 322.6 92.8787 322.879C92.6001 323.157 92.3791 323.488 92.2284 323.852C92.0776 324.216 92 324.606 92 325H95V322Z" fill="white"/>
<path d="M138 325C138 325.394 138.078 325.784 138.228 326.148C138.379 326.512 138.6 326.843 138.879 327.121C139.157 327.4 139.488 327.621 139.852 327.772C140.216 327.922 140.606 328 141 328V325H138Z" fill="white"/>
<path d="M98 371C98 370.606 97.9224 370.216 97.7716 369.852C97.6209 369.488 97.3999 369.157 97.1213 368.879C96.8427 368.6 96.512 368.379 96.148 368.228C95.7841 368.078 95.394 368 95 368V371H98Z" fill="white"/>
<path d="M95 328C95.394 328 95.7841 327.922 96.148 327.772C96.512 327.621 96.8427 327.4 97.1213 327.121C97.3999 326.843 97.6209 326.512 97.7716 326.148C97.9224 325.784 98 325.394 98 325H95V328Z" fill="white"/>
<path d="M141 368C140.606 368 140.216 368.078 139.852 368.228C139.488 368.379 139.157 368.6 138.879 368.879C138.6 369.157 138.379 369.488 138.228 369.852C138.078 370.216 138 370.606 138 371H141V368Z" fill="white"/>
<path d="M184 325C184 325.394 184.078 325.784 184.228 326.148C184.379 326.512 184.6 326.843 184.879 327.121C185.157 327.4 185.488 327.621 185.852 327.772C186.216 327.922 186.606 328 187 328V325H184Z" fill="white"/>
<path d="M144 371C144 370.606 143.922 370.216 143.772 369.852C143.621 369.488 143.4 369.157 143.121 368.879C142.843 368.6 142.512 368.379 142.148 368.228C141.784 368.078 141.394 368 141 368V371H144Z" fill="white"/>
<path d="M141 328C141.394 328 141.784 327.922 142.148 327.772C142.512 327.621 142.843 327.4 143.121 327.121C143.4 326.843 143.621 326.512 143.772 326.148C143.922 325.784 144 325.394 144 325H141V328Z" fill="white"/>
<path d="M187 368C186.606 368 186.216 368.078 185.852 368.228C185.488 368.379 185.157 368.6 184.879 368.879C184.6 369.157 184.379 369.488 184.228 369.852C184.078 370.216 184 370.606 184 371H187V368Z" fill="white"/>
<path d="M138 279C138 279.394 138.078 279.784 138.228 280.148C138.379 280.512 138.6 280.843 138.879 281.121C139.157 281.4 139.488 281.621 139.852 281.772C140.216 281.922 140.606 282 141 282V279H138Z" fill="white"/>
<path d="M98 325C98 324.606 97.9224 324.216 97.7716 323.852C97.6209 323.488 97.3999 323.157 97.1213 322.879C96.8427 322.6 96.512 322.379 96.148 322.228C95.7841 322.078 95.394 322 95 322V325H98Z" fill="white"/>
<path d="M95 282C95.394 282 95.7841 281.922 96.148 281.772C96.512 281.621 96.8427 281.4 97.1213 281.121C97.3999 280.843 97.6209 280.512 97.7716 280.148C97.9224 279.784 98 279.394 98 279H95V282Z" fill="white"/>
<path d="M141 322C140.606 322 140.216 322.078 139.852 322.228C139.488 322.379 139.157 322.6 138.879 322.879C138.6 323.157 138.379 323.488 138.228 323.852C138.078 324.216 138 324.606 138 325H141V322Z" fill="white"/>
<path d="M184 279C184 279.394 184.078 279.784 184.228 280.148C184.379 280.512 184.6 280.843 184.879 281.121C185.157 281.4 185.488 281.621 185.852 281.772C186.216 281.922 186.606 282 187 282V279H184Z" fill="white"/>
<path d="M144 325C144 324.606 143.922 324.216 143.772 323.852C143.621 323.488 143.4 323.157 143.121 322.879C142.843 322.6 142.512 322.379 142.148 322.228C141.784 322.078 141.394 322 141 322V325H144Z" fill="white"/>
<path d="M141 282C141.394 282 141.784 281.922 142.148 281.772C142.512 281.621 142.843 281.4 143.121 281.121C143.4 280.843 143.621 280.512 143.772 280.148C143.922 279.784 144 279.394 144 279H141V282Z" fill="white"/>
<path d="M187 322C186.606 322 186.216 322.078 185.852 322.228C185.488 322.379 185.157 322.6 184.879 322.879C184.6 323.157 184.379 323.488 184.228 323.852C184.078 324.216 184 324.606 184 325H187V322Z" fill="white"/>
<path d="M230 233C230 233.394 230.078 233.784 230.228 234.148C230.379 234.512 230.6 234.843 230.879 235.121C231.157 235.4 231.488 235.621 231.852 235.772C232.216 235.922 232.606 236 233 236V233H230Z" fill="white"/>
<path d="M190 279C190 278.606 189.922 278.216 189.772 277.852C189.621 277.488 189.4 277.157 189.121 276.879C188.843 276.6 188.512 276.379 188.148 276.228C187.784 276.078 187.394 276 187 276V279H190Z" fill="white"/>
<path d="M187 236C187.394 236 187.784 235.922 188.148 235.772C188.512 235.621 188.843 235.4 189.121 235.121C189.4 234.843 189.621 234.512 189.772 234.148C189.922 233.784 190 233.394 190 233H187V236Z" fill="white"/>
<path d="M233 276C232.606 276 232.216 276.078 231.852 276.228C231.488 276.379 231.157 276.6 230.879 276.879C230.6 277.157 230.379 277.488 230.228 277.852C230.078 278.216 230 278.606 230 279H233V276Z" fill="white"/>
<path d="M276 233C276 233.394 276.078 233.784 276.228 234.148C276.379 234.512 276.6 234.843 276.879 235.121C277.157 235.4 277.488 235.621 277.852 235.772C278.216 235.922 278.606 236 279 236V233H276Z" fill="white"/>
<path d="M236 279C236 278.606 235.922 278.216 235.772 277.852C235.621 277.488 235.4 277.157 235.121 276.879C234.843 276.6 234.512 276.379 234.148 276.228C233.784 276.078 233.394 276 233 276V279H236Z" fill="white"/>
<path d="M233 236C233.394 236 233.784 235.922 234.148 235.772C234.512 235.621 234.843 235.4 235.121 235.121C235.4 234.843 235.621 234.512 235.772 234.148C235.922 233.784 236 233.394 236 233H233V236Z" fill="white"/>
<path d="M279 276C278.606 276 278.216 276.078 277.852 276.228C277.488 276.379 277.157 276.6 276.879 276.879C276.6 277.157 276.379 277.488 276.228 277.852C276.078 278.216 276 278.606 276 279H279V276Z" fill="white"/>
<path d="M230 187C230 187.394 230.078 187.784 230.228 188.148C230.379 188.512 230.6 188.843 230.879 189.121C231.157 189.4 231.488 189.621 231.852 189.772C232.216 189.922 232.606 190 233 190V187H230Z" fill="white"/>
<path d="M190 233C190 232.606 189.922 232.216 189.772 231.852C189.621 231.488 189.4 231.157 189.121 230.879C188.843 230.6 188.512 230.379 188.148 230.228C187.784 230.078 187.394 230 187 230V233H190Z" fill="white"/>
<path d="M187 190C187.394 190 187.784 189.922 188.148 189.772C188.512 189.621 188.843 189.4 189.121 189.121C189.4 188.843 189.621 188.512 189.772 188.148C189.922 187.784 190 187.394 190 187H187V190Z" fill="white"/>
<path d="M233 230C232.606 230 232.216 230.078 231.852 230.228C231.488 230.379 231.157 230.6 230.879 230.879C230.6 231.157 230.379 231.488 230.228 231.852C230.078 232.216 230 232.606 230 233H233V230Z" fill="white"/>
<path d="M276 187C276 187.394 276.078 187.784 276.228 188.148C276.379 188.512 276.6 188.843 276.879 189.121C277.157 189.4 277.488 189.621 277.852 189.772C278.216 189.922 278.606 190 279 190V187H276Z" fill="white"/>
<path d="M236 233C236 232.606 235.922 232.216 235.772 231.852C235.621 231.488 235.4 231.157 235.121 230.879C234.843 230.6 234.512 230.379 234.148 230.228C233.784 230.078 233.394 230 233 230V233H236Z" fill="white"/>
<path d="M233 190C233.394 190 233.784 189.922 234.148 189.772C234.512 189.621 234.843 189.4 235.121 189.121C235.4 188.843 235.621 188.512 235.772 188.148C235.922 187.784 236 187.394 236 187H233V190Z" fill="white"/>
<path d="M279 230C278.606 230 278.216 230.078 277.852 230.228C277.488 230.379 277.157 230.6 276.879 230.879C276.6 231.157 276.379 231.488 276.228 231.852C276.078 232.216 276 232.606 276 233H279V230Z" fill="white"/>
<path d="M322 233C322 233.394 322.078 233.784 322.228 234.148C322.379 234.512 322.6 234.843 322.879 235.121C323.157 235.4 323.488 235.621 323.852 235.772C324.216 235.922 324.606 236 325 236V233H322Z" fill="white"/>
<path d="M282 279C282 278.606 281.922 278.216 281.772 277.852C281.621 277.488 281.4 277.157 281.121 276.879C280.843 276.6 280.512 276.379 280.148 276.228C279.784 276.078 279.394 276 279 276V279H282Z" fill="white"/>
<path d="M279 236C279.394 236 279.784 235.922 280.148 235.772C280.512 235.621 280.843 235.4 281.121 235.121C281.4 234.843 281.621 234.512 281.772 234.148C281.922 233.784 282 233.394 282 233H279V236Z" fill="white"/>
<path d="M325 276C324.606 276 324.216 276.078 323.852 276.228C323.488 276.379 323.157 276.6 322.879 276.879C322.6 277.157 322.379 277.488 322.228 277.852C322.078 278.216 322 278.606 322 279H325V276Z" fill="white"/>
<path d="M368 233C368 233.394 368.078 233.784 368.228 234.148C368.379 234.512 368.6 234.843 368.879 235.121C369.157 235.4 369.488 235.621 369.852 235.772C370.216 235.922 370.606 236 371 236V233H368Z" fill="white"/>
<path d="M328 279C328 278.606 327.922 278.216 327.772 277.852C327.621 277.488 327.4 277.157 327.121 276.879C326.843 276.6 326.512 276.379 326.148 276.228C325.784 276.078 325.394 276 325 276V279H328Z" fill="white"/>
<path d="M325 236C325.394 236 325.784 235.922 326.148 235.772C326.512 235.621 326.843 235.4 327.121 235.121C327.4 234.843 327.621 234.512 327.772 234.148C327.922 233.784 328 233.394 328 233H325V236Z" fill="white"/>
<path d="M371 276C370.606 276 370.216 276.078 369.852 276.228C369.488 276.379 369.157 276.6 368.879 276.879C368.6 277.157 368.379 277.488 368.228 277.852C368.078 278.216 368 278.606 368 279H371V276Z" fill="white"/>
<path d="M322 187C322 187.394 322.078 187.784 322.228 188.148C322.379 188.512 322.6 188.843 322.879 189.121C323.157 189.4 323.488 189.621 323.852 189.772C324.216 189.922 324.606 190 325 190V187H322Z" fill="white"/>
<path d="M282 233C282 232.606 281.922 232.216 281.772 231.852C281.621 231.488 281.4 231.157 281.121 230.879C280.843 230.6 280.512 230.379 280.148 230.228C279.784 230.078 279.394 230 279 230V233H282Z" fill="white"/>
<path d="M279 190C279.394 190 279.784 189.922 280.148 189.772C280.512 189.621 280.843 189.4 281.121 189.121C281.4 188.843 281.621 188.512 281.772 188.148C281.922 187.784 282 187.394 282 187H279V190Z" fill="white"/>
<path d="M325 230C324.606 230 324.216 230.078 323.852 230.228C323.488 230.379 323.157 230.6 322.879 230.879C322.6 231.157 322.379 231.488 322.228 231.852C322.078 232.216 322 232.606 322 233H325V230Z" fill="white"/>
<path d="M368 187C368 187.394 368.078 187.784 368.228 188.148C368.379 188.512 368.6 188.843 368.879 189.121C369.157 189.4 369.488 189.621 369.852 189.772C370.216 189.922 370.606 190 371 190V187H368Z" fill="white"/>
<path d="M328 233C328 232.606 327.922 232.216 327.772 231.852C327.621 231.488 327.4 231.157 327.121 230.879C326.843 230.6 326.512 230.379 326.148 230.228C325.784 230.078 325.394 230 325 230V233H328Z" fill="white"/>
<path d="M325 190C325.394 190 325.784 189.922 326.148 189.772C326.512 189.621 326.843 189.4 327.121 189.121C327.4 188.843 327.621 188.512 327.772 188.148C327.922 187.784 328 187.394 328 187H325V190Z" fill="white"/>
<path d="M371 230C370.606 230 370.216 230.078 369.852 230.228C369.488 230.379 369.157 230.6 368.879 230.879C368.6 231.157 368.379 231.488 368.228 231.852C368.078 232.216 368 232.606 368 233H371V230Z" fill="white"/>
<path d="M230 325C230 325.394 230.078 325.784 230.228 326.148C230.379 326.512 230.6 326.843 230.879 327.121C231.157 327.4 231.488 327.621 231.852 327.772C232.216 327.922 232.606 328 233 328V325H230Z" fill="white"/>
<path d="M190 371C190 370.606 189.922 370.216 189.772 369.852C189.621 369.488 189.4 369.157 189.121 368.879C188.843 368.6 188.512 368.379 188.148 368.228C187.784 368.078 187.394 368 187 368V371H190Z" fill="white"/>
<path d="M187 328C187.394 328 187.784 327.922 188.148 327.772C188.512 327.621 188.843 327.4 189.121 327.121C189.4 326.843 189.621 326.512 189.772 326.148C189.922 325.784 190 325.394 190 325H187V328Z" fill="white"/>
<path d="M233 368C232.606 368 232.216 368.078 231.852 368.228C231.488 368.379 231.157 368.6 230.879 368.879C230.6 369.157 230.379 369.488 230.228 369.852C230.078 370.216 230 370.606 230 371H233V368Z" fill="white"/>
<path d="M276 325C276 325.394 276.078 325.784 276.228 326.148C276.379 326.512 276.6 326.843 276.879 327.121C277.157 327.4 277.488 327.621 277.852 327.772C278.216 327.922 278.606 328 279 328V325H276Z" fill="white"/>
<path d="M236 371C236 370.606 235.922 370.216 235.772 369.852C235.621 369.488 235.4 369.157 235.121 368.879C234.843 368.6 234.512 368.379 234.148 368.228C233.784 368.078 233.394 368 233 368V371H236Z" fill="white"/>
<path d="M233 328C233.394 328 233.784 327.922 234.148 327.772C234.512 327.621 234.843 327.4 235.121 327.121C235.4 326.843 235.621 326.512 235.772 326.148C235.922 325.784 236 325.394 236 325H233V328Z" fill="white"/>
<path d="M279 368C278.606 368 278.216 368.078 277.852 368.228C277.488 368.379 277.157 368.6 276.879 368.879C276.6 369.157 276.379 369.488 276.228 369.852C276.078 370.216 276 370.606 276 371H279V368Z" fill="white"/>
<path d="M230 279C230 279.394 230.078 279.784 230.228 280.148C230.379 280.512 230.6 280.843 230.879 281.121C231.157 281.4 231.488 281.621 231.852 281.772C232.216 281.922 232.606 282 233 282V279H230Z" fill="white"/>
<path d="M190 325C190 324.606 189.922 324.216 189.772 323.852C189.621 323.488 189.4 323.157 189.121 322.879C188.843 322.6 188.512 322.379 188.148 322.228C187.784 322.078 187.394 322 187 322V325H190Z" fill="white"/>
<path d="M187 282C187.394 282 187.784 281.922 188.148 281.772C188.512 281.621 188.843 281.4 189.121 281.121C189.4 280.843 189.621 280.512 189.772 280.148C189.922 279.784 190 279.394 190 279H187V282Z" fill="white"/>
<path d="M233 322C232.606 322 232.216 322.078 231.852 322.228C231.488 322.379 231.157 322.6 230.879 322.879C230.6 323.157 230.379 323.488 230.228 323.852C230.078 324.216 230 324.606 230 325H233V322Z" fill="white"/>
<path d="M276 279C276 279.394 276.078 279.784 276.228 280.148C276.379 280.512 276.6 280.843 276.879 281.121C277.157 281.4 277.488 281.621 277.852 281.772C278.216 281.922 278.606 282 279 282V279H276Z" fill="white"/>
<path d="M236 325C236 324.606 235.922 324.216 235.772 323.852C235.621 323.488 235.4 323.157 235.121 322.879C234.843 322.6 234.512 322.379 234.148 322.228C233.784 322.078 233.394 322 233 322V325H236Z" fill="white"/>
<path d="M233 282C233.394 282 233.784 281.922 234.148 281.772C234.512 281.621 234.843 281.4 235.121 281.121C235.4 280.843 235.621 280.512 235.772 280.148C235.922 279.784 236 279.394 236 279H233V282Z" fill="white"/>
<path d="M279 322C278.606 322 278.216 322.078 277.852 322.228C277.488 322.379 277.157 322.6 276.879 322.879C276.6 323.157 276.379 323.488 276.228 323.852C276.078 324.216 276 324.606 276 325H279V322Z" fill="white"/>
<path d="M322 325C322 325.394 322.078 325.784 322.228 326.148C322.379 326.512 322.6 326.843 322.879 327.121C323.157 327.4 323.488 327.621 323.852 327.772C324.216 327.922 324.606 328 325 328V325H322Z" fill="white"/>
<path d="M282 371C282 370.606 281.922 370.216 281.772 369.852C281.621 369.488 281.4 369.157 281.121 368.879C280.843 368.6 280.512 368.379 280.148 368.228C279.784 368.078 279.394 368 279 368V371H282Z" fill="white"/>
<path d="M279 328C279.394 328 279.784 327.922 280.148 327.772C280.512 327.621 280.843 327.4 281.121 327.121C281.4 326.843 281.621 326.512 281.772 326.148C281.922 325.784 282 325.394 282 325H279V328Z" fill="white"/>
<path d="M325 368C324.606 368 324.216 368.078 323.852 368.228C323.488 368.379 323.157 368.6 322.879 368.879C322.6 369.157 322.379 369.488 322.228 369.852C322.078 370.216 322 370.606 322 371H325V368Z" fill="white"/>
<path d="M368 325C368 325.394 368.078 325.784 368.228 326.148C368.379 326.512 368.6 326.843 368.879 327.121C369.157 327.4 369.488 327.621 369.852 327.772C370.216 327.922 370.606 328 371 328V325H368Z" fill="white"/>
<path d="M328 371C328 370.606 327.922 370.216 327.772 369.852C327.621 369.488 327.4 369.157 327.121 368.879C326.843 368.6 326.512 368.379 326.148 368.228C325.784 368.078 325.394 368 325 368V371H328Z" fill="white"/>
<path d="M325 328C325.394 328 325.784 327.922 326.148 327.772C326.512 327.621 326.843 327.4 327.121 327.121C327.4 326.843 327.621 326.512 327.772 326.148C327.922 325.784 328 325.394 328 325H325V328Z" fill="white"/>
<path d="M371 368C370.606 368 370.216 368.078 369.852 368.228C369.488 368.379 369.157 368.6 368.879 368.879C368.6 369.157 368.379 369.488 368.228 369.852C368.078 370.216 368 370.606 368 371H371V368Z" fill="white"/>
<path d="M322 279C322 279.394 322.078 279.784 322.228 280.148C322.379 280.512 322.6 280.843 322.879 281.121C323.157 281.4 323.488 281.621 323.852 281.772C324.216 281.922 324.606 282 325 282V279H322Z" fill="white"/>
<path d="M282 325C282 324.606 281.922 324.216 281.772 323.852C281.621 323.488 281.4 323.157 281.121 322.879C280.843 322.6 280.512 322.379 280.148 322.228C279.784 322.078 279.394 322 279 322V325H282Z" fill="white"/>
<path d="M279 282C279.394 282 279.784 281.922 280.148 281.772C280.512 281.621 280.843 281.4 281.121 281.121C281.4 280.843 281.621 280.512 281.772 280.148C281.922 279.784 282 279.394 282 279H279V282Z" fill="white"/>
<path d="M325 322C324.606 322 324.216 322.078 323.852 322.228C323.488 322.379 323.157 322.6 322.879 322.879C322.6 323.157 322.379 323.488 322.228 323.852C322.078 324.216 322 324.606 322 325H325V322Z" fill="white"/>
<path d="M368 279C368 279.394 368.078 279.784 368.228 280.148C368.379 280.512 368.6 280.843 368.879 281.121C369.157 281.4 369.488 281.621 369.852 281.772C370.216 281.922 370.606 282 371 282V279H368Z" fill="white"/>
<path d="M328 325C328 324.606 327.922 324.216 327.772 323.852C327.621 323.488 327.4 323.157 327.121 322.879C326.843 322.6 326.512 322.379 326.148 322.228C325.784 322.078 325.394 322 325 322V325H328Z" fill="white"/>
<path d="M325 282C325.394 282 325.784 281.922 326.148 281.772C326.512 281.621 326.843 281.4 327.121 281.121C327.4 280.843 327.621 280.512 327.772 280.148C327.922 279.784 328 279.394 328 279H325V282Z" fill="white"/>
<path d="M371 322C370.606 322 370.216 322.078 369.852 322.228C369.488 322.379 369.157 322.6 368.879 322.879C368.6 323.157 368.379 323.488 368.228 323.852C368.078 324.216 368 324.606 368 325H371V322Z" fill="white"/>
<path d="M420 325C420 324.606 419.922 324.216 419.772 323.852C419.621 323.488 419.4 323.157 419.121 322.879C418.843 322.6 418.512 322.379 418.148 322.228C417.784 322.078 417.394 322 417 322V325H420Z" fill="white"/>
<path d="M417 328C417.394 328 417.784 327.922 418.148 327.772C418.512 327.621 418.843 327.4 419.121 327.121C419.4 326.843 419.621 326.512 419.772 326.148C419.922 325.784 420 325.394 420 325H417V328Z" fill="white"/>
<path d="M420 371C420 370.606 419.922 370.216 419.772 369.852C419.621 369.488 419.4 369.157 419.121 368.879C418.843 368.6 418.512 368.379 418.148 368.228C417.784 368.078 417.394 368 417 368V371H420Z" fill="white"/>
<path d="M417 374C417.394 374 417.784 373.922 418.148 373.772C418.512 373.621 418.843 373.4 419.121 373.121C419.4 372.843 419.621 372.512 419.772 372.148C419.922 371.784 420 371.394 420 371H417V374Z" fill="white"/>
<path d="M420 233C420 232.606 419.922 232.216 419.772 231.852C419.621 231.488 419.4 231.157 419.121 230.879C418.843 230.6 418.512 230.379 418.148 230.228C417.784 230.078 417.394 230 417 230V233H420Z" fill="white"/>
<path d="M417 236C417.394 236 417.784 235.922 418.148 235.772C418.512 235.621 418.843 235.4 419.121 235.121C419.4 234.843 419.621 234.512 419.772 234.148C419.922 233.784 420 233.394 420 233H417V236Z" fill="white"/>
<path d="M420 187C420 186.606 419.922 186.216 419.772 185.852C419.621 185.488 419.4 185.157 419.121 184.879C418.843 184.6 418.512 184.379 418.148 184.228C417.784 184.078 417.394 184 417 184V187H420Z" fill="white"/>
<path d="M417 190C417.394 190 417.784 189.922 418.148 189.772C418.512 189.621 418.843 189.4 419.121 189.121C419.4 188.843 419.621 188.512 419.772 188.148C419.922 187.784 420 187.394 420 187H417V190Z" fill="white"/>
<path d="M420 141C420 140.606 419.922 140.216 419.772 139.852C419.621 139.488 419.4 139.157 419.121 138.879C418.843 138.6 418.512 138.379 418.148 138.228C417.784 138.078 417.394 138 417 138V141H420Z" fill="white"/>
<path d="M417 144C417.394 144 417.784 143.922 418.148 143.772C418.512 143.621 418.843 143.4 419.121 143.121C419.4 142.843 419.621 142.512 419.772 142.148C419.922 141.784 420 141.394 420 141H417V144Z" fill="white"/>
<path d="M420 95C420 94.606 419.922 94.2159 419.772 93.852C419.621 93.488 419.4 93.1573 419.121 92.8787C418.843 92.6001 418.512 92.3791 418.148 92.2284C417.784 92.0776 417.394 92 417 92V95H420Z" fill="white"/>
<path d="M417 98C417.394 98 417.784 97.9224 418.148 97.7716C418.512 97.6209 418.843 97.3999 419.121 97.1213C419.4 96.8427 419.621 96.512 419.772 96.148C419.922 95.7841 420 95.394 420 95H417V98Z" fill="white"/>
<path d="M420 49C420 48.606 419.922 48.2159 419.772 47.852C419.621 47.488 419.4 47.1573 419.121 46.8787C418.843 46.6001 418.512 46.3791 418.148 46.2284C417.784 46.0776 417.394 46 417 46V49H420Z" fill="white"/>
<path d="M417 52C417.394 52 417.784 51.9224 418.148 51.7716C418.512 51.6209 418.843 51.3999 419.121 51.1213C419.4 50.8427 419.621 50.512 419.772 50.148C419.922 49.7841 420 49.394 420 49H417V52Z" fill="white"/>
<path d="M420 3C420 2.60603 419.922 2.21593 419.772 1.85195C419.621 1.48797 419.4 1.15726 419.121 0.87868C418.843 0.600104 418.512 0.379126 418.148 0.228361C417.784 0.0775973 417.394 4.69822e-09 417 0V3L420 3Z" fill="white"/>
<path d="M417 0C416.606 -5.16621e-08 416.216 0.0775976 415.852 0.228362C415.488 0.379126 415.157 0.600104 414.879 0.87868C414.6 1.15726 414.379 1.48797 414.228 1.85195C414.078 2.21593 414 2.60604 414 3L417 3V0Z" fill="white"/>
<path d="M417 6C417.394 6 417.784 5.9224 418.148 5.77164C418.512 5.62088 418.843 5.3999 419.121 5.12132C419.4 4.84274 419.621 4.51203 419.772 4.14805C419.922 3.78407 420 3.39397 420 3L417 3V6Z" fill="white"/>
<path d="M371 4.05328e-07C370.606 3.53665e-07 370.216 0.0775976 369.852 0.228362C369.488 0.379126 369.157 0.600104 368.879 0.87868C368.6 1.15726 368.379 1.48797 368.228 1.85195C368.078 2.21593 368 2.60604 368 3L371 3V4.05328e-07Z" fill="white"/>
<path d="M374 3C374 2.60604 373.922 2.21593 373.772 1.85195C373.621 1.48797 373.4 1.15726 373.121 0.87868C372.843 0.600104 372.512 0.379126 372.148 0.228362C371.784 0.0775977 371.394 3.41143e-07 371 4.05328e-07V3L374 3Z" fill="white"/>
<path d="M279 4.05328e-07C278.606 3.53665e-07 278.216 0.0775976 277.852 0.228362C277.488 0.379126 277.157 0.600104 276.879 0.87868C276.6 1.15726 276.379 1.48797 276.228 1.85195C276.078 2.21593 276 2.60604 276 3L279 3V4.05328e-07Z" fill="white"/>
<path d="M282 3C282 2.60604 281.922 2.21593 281.772 1.85195C281.621 1.48797 281.4 1.15726 281.121 0.87868C280.843 0.600104 280.512 0.379126 280.148 0.228362C279.784 0.0775977 279.394 3.41143e-07 279 4.05328e-07V3L282 3Z" fill="white"/>
<path d="M233 4.05328e-07C232.606 3.53665e-07 232.216 0.0775976 231.852 0.228362C231.488 0.379126 231.157 0.600104 230.879 0.87868C230.6 1.15726 230.379 1.48797 230.228 1.85195C230.078 2.21593 230 2.60604 230 3L233 3V4.05328e-07Z" fill="white"/>
<path d="M236 3C236 2.60604 235.922 2.21593 235.772 1.85195C235.621 1.48797 235.4 1.15726 235.121 0.87868C234.843 0.600104 234.512 0.379126 234.148 0.228362C233.784 0.0775977 233.394 3.41143e-07 233 4.05328e-07V3L236 3Z" fill="white"/>
<path d="M187 4.05328e-07C186.606 3.53665e-07 186.216 0.0775976 185.852 0.228362C185.488 0.379126 185.157 0.600104 184.879 0.87868C184.6 1.15726 184.379 1.48797 184.228 1.85195C184.078 2.21593 184 2.60604 184 3L187 3V4.05328e-07Z" fill="white"/>
<path d="M190 3C190 2.60604 189.922 2.21593 189.772 1.85195C189.621 1.48797 189.4 1.15726 189.121 0.87868C188.843 0.600104 188.512 0.379126 188.148 0.228362C187.784 0.0775977 187.394 3.41143e-07 187 4.05328e-07V3L190 3Z" fill="white"/>
<path d="M141 4.05328e-07C140.606 3.53665e-07 140.216 0.0775976 139.852 0.228362C139.488 0.379126 139.157 0.600104 138.879 0.87868C138.6 1.15726 138.379 1.48797 138.228 1.85195C138.078 2.21593 138 2.60604 138 3L141 3V4.05328e-07Z" fill="white"/>
<path d="M144 3C144 2.60604 143.922 2.21593 143.772 1.85195C143.621 1.48797 143.4 1.15726 143.121 0.87868C142.843 0.600104 142.512 0.379126 142.148 0.228362C141.784 0.0775977 141.394 3.41143e-07 141 4.05328e-07V3L144 3Z" fill="white"/>
<path d="M95 4.05328e-07C94.606 3.53665e-07 94.2159 0.0775976 93.852 0.228362C93.488 0.379126 93.1573 0.600104 92.8787 0.87868C92.6001 1.15726 92.3791 1.48797 92.2284 1.85195C92.0776 2.21593 92 2.60604 92 3L95 3V4.05328e-07Z" fill="white"/>
<path d="M98 3C98 2.60604 97.9224 2.21593 97.7716 1.85195C97.6209 1.48797 97.3999 1.15726 97.1213 0.87868C96.8427 0.600104 96.512 0.379126 96.148 0.228362C95.7841 0.0775977 95.394 3.41143e-07 95 4.05328e-07V3L98 3Z" fill="white"/>
<path d="M49 4.05328e-07C48.606 3.53665e-07 48.2159 0.0775976 47.8519 0.228362C47.488 0.379126 47.1573 0.600104 46.8787 0.87868C46.6001 1.15726 46.3791 1.48797 46.2284 1.85195C46.0776 2.21593 46 2.60604 46 3L49 3V4.05328e-07Z" fill="white"/>
<path d="M52 3C52 2.60604 51.9224 2.21593 51.7716 1.85195C51.6209 1.48797 51.3999 1.15726 51.1213 0.87868C50.8427 0.600104 50.512 0.379126 50.148 0.228362C49.7841 0.0775977 49.394 3.41143e-07 49 4.05328e-07V3L52 3Z" fill="white"/>
<path d="M3 4.05328e-07C2.60603 3.53665e-07 2.21593 0.0775976 1.85195 0.228362C1.48797 0.379126 1.15726 0.600104 0.87868 0.87868C0.600104 1.15726 0.379126 1.48797 0.228361 1.85195C0.0775973 2.21593 -1.25226e-08 2.60603 0 3L3 3L3 4.05328e-07Z" fill="white"/>
<path d="M0 3C-3.44413e-08 3.39397 0.0775974 3.78407 0.228361 4.14805C0.379126 4.51203 0.600104 4.84274 0.87868 5.12132C1.15726 5.3999 1.48797 5.62087 1.85195 5.77164C2.21593 5.9224 2.60603 6 3 6V3L0 3Z" fill="white"/>
<path d="M6 3C6 2.60603 5.9224 2.21593 5.77164 1.85195C5.62087 1.48797 5.3999 1.15726 5.12132 0.87868C4.84274 0.600104 4.51203 0.379126 4.14805 0.228362C3.78407 0.0775977 3.39397 3.41143e-07 3 4.05328e-07L3 3L6 3Z" fill="white"/>
<path d="M1.43059e-07 49C1.08618e-07 49.394 0.0775974 49.7841 0.228361 50.1481C0.379126 50.512 0.600104 50.8427 0.87868 51.1213C1.15726 51.3999 1.48797 51.6209 1.85195 51.7716C2.21593 51.9224 2.60603 52 3 52V49H1.43059e-07Z" fill="white"/>
<path d="M3 46C2.60603 46 2.21593 46.0776 1.85195 46.2284C1.48797 46.3791 1.15726 46.6001 0.87868 46.8787C0.600104 47.1573 0.379126 47.488 0.228362 47.852C0.0775977 48.2159 6.16533e-08 48.606 1.43059e-07 49H3L3 46Z" fill="white"/>
<path d="M1.43059e-07 95C1.08618e-07 95.394 0.0775974 95.7841 0.228361 96.148C0.379126 96.512 0.600104 96.8427 0.87868 97.1213C1.15726 97.3999 1.48797 97.6209 1.85195 97.7716C2.21593 97.9224 2.60603 98 3 98V95H1.43059e-07Z" fill="white"/>
<path d="M3 92C2.60603 92 2.21593 92.0776 1.85195 92.2284C1.48797 92.3791 1.15726 92.6001 0.87868 92.8787C0.600104 93.1573 0.379126 93.488 0.228362 93.852C0.0775977 94.2159 6.16533e-08 94.606 1.43059e-07 95H3L3 92Z" fill="white"/>
<path d="M1.43059e-07 141C1.08618e-07 141.394 0.0775974 141.784 0.228361 142.148C0.379126 142.512 0.600104 142.843 0.87868 143.121C1.15726 143.4 1.48797 143.621 1.85195 143.772C2.21593 143.922 2.60603 144 3 144V141H1.43059e-07Z" fill="white"/>
<path d="M3 138C2.60603 138 2.21593 138.078 1.85195 138.228C1.48797 138.379 1.15726 138.6 0.87868 138.879C0.600104 139.157 0.379126 139.488 0.228362 139.852C0.0775977 140.216 6.16533e-08 140.606 1.43059e-07 141H3L3 138Z" fill="white"/>
<path d="M1.43059e-07 187C1.08618e-07 187.394 0.0775974 187.784 0.228361 188.148C0.379126 188.512 0.600104 188.843 0.87868 189.121C1.15726 189.4 1.48797 189.621 1.85195 189.772C2.21593 189.922 2.60603 190 3 190V187H1.43059e-07Z" fill="white"/>
<path d="M3 184C2.60603 184 2.21593 184.078 1.85195 184.228C1.48797 184.379 1.15726 184.6 0.87868 184.879C0.600104 185.157 0.379126 185.488 0.228362 185.852C0.0775977 186.216 6.16533e-08 186.606 1.43059e-07 187H3L3 184Z" fill="white"/>
<path d="M1.43059e-07 233C1.08618e-07 233.394 0.0775974 233.784 0.228361 234.148C0.379126 234.512 0.600104 234.843 0.87868 235.121C1.15726 235.4 1.48797 235.621 1.85195 235.772C2.21593 235.922 2.60603 236 3 236V233H1.43059e-07Z" fill="white"/>
<path d="M3 230C2.60603 230 2.21593 230.078 1.85195 230.228C1.48797 230.379 1.15726 230.6 0.87868 230.879C0.600104 231.157 0.379126 231.488 0.228362 231.852C0.0775977 232.216 6.16533e-08 232.606 1.43059e-07 233H3L3 230Z" fill="white"/>
<path d="M1.43059e-07 279C1.08618e-07 279.394 0.0775974 279.784 0.228361 280.148C0.379126 280.512 0.600104 280.843 0.87868 281.121C1.15726 281.4 1.48797 281.621 1.85195 281.772C2.21593 281.922 2.60603 282 3 282V279H1.43059e-07Z" fill="white"/>
<path d="M3 276C2.60603 276 2.21593 276.078 1.85195 276.228C1.48797 276.379 1.15726 276.6 0.87868 276.879C0.600104 277.157 0.379126 277.488 0.228362 277.852C0.0775977 278.216 6.16533e-08 278.606 1.43059e-07 279H3L3 276Z" fill="white"/>
<path d="M1.43059e-07 325C1.08618e-07 325.394 0.0775974 325.784 0.228361 326.148C0.379126 326.512 0.600104 326.843 0.87868 327.121C1.15726 327.4 1.48797 327.621 1.85195 327.772C2.21593 327.922 2.60603 328 3 328V325H1.43059e-07Z" fill="white"/>
<path d="M3 322C2.60603 322 2.21593 322.078 1.85195 322.228C1.48797 322.379 1.15726 322.6 0.87868 322.879C0.600104 323.157 0.379126 323.488 0.228362 323.852C0.0775977 324.216 6.16533e-08 324.606 1.43059e-07 325H3L3 322Z" fill="white"/>
<path d="M1.43059e-07 371C1.08618e-07 371.394 0.0775974 371.784 0.228361 372.148C0.379126 372.512 0.600104 372.843 0.87868 373.121C1.15726 373.4 1.48797 373.621 1.85195 373.772C2.21593 373.922 2.60603 374 3 374V371H1.43059e-07Z" fill="white"/>
<path d="M3 368C2.60603 368 2.21593 368.078 1.85195 368.228C1.48797 368.379 1.15726 368.6 0.87868 368.879C0.600104 369.157 0.379126 369.488 0.228362 369.852C0.0775977 370.216 6.16533e-08 370.606 1.43059e-07 371H3L3 368Z" fill="white"/>
<path d="M1.43059e-07 417C1.08618e-07 417.394 0.0775974 417.784 0.228361 418.148C0.379126 418.512 0.600104 418.843 0.87868 419.121C1.15726 419.4 1.48797 419.621 1.85195 419.772C2.21593 419.922 2.60603 420 3 420L3 417H1.43059e-07Z" fill="white"/>
<path d="M3 420C3.39397 420 3.78407 419.922 4.14805 419.772C4.51203 419.621 4.84274 419.4 5.12132 419.121C5.3999 418.843 5.62087 418.512 5.77164 418.148C5.9224 417.784 6 417.394 6 417H3L3 420Z" fill="white"/>
<path d="M3 414C2.60603 414 2.21593 414.078 1.85195 414.228C1.48797 414.379 1.15726 414.6 0.87868 414.879C0.600104 415.157 0.379126 415.488 0.228362 415.852C0.0775977 416.216 6.16533e-08 416.606 1.43059e-07 417H3L3 414Z" fill="white"/>
<path d="M49 420C49.394 420 49.7841 419.922 50.148 419.772C50.512 419.621 50.8427 419.4 51.1213 419.121C51.3999 418.843 51.6209 418.512 51.7716 418.148C51.9224 417.784 52 417.394 52 417H49V420Z" fill="white"/>
<path d="M46 417C46 417.394 46.0776 417.784 46.2284 418.148C46.3791 418.512 46.6001 418.843 46.8787 419.121C47.1573 419.4 47.488 419.621 47.852 419.772C48.2159 419.922 48.606 420 49 420V417H46Z" fill="white"/>
<path d="M95 420C95.394 420 95.7841 419.922 96.148 419.772C96.512 419.621 96.8427 419.4 97.1213 419.121C97.3999 418.843 97.6209 418.512 97.7716 418.148C97.9224 417.784 98 417.394 98 417H95V420Z" fill="white"/>
<path d="M92 417C92 417.394 92.0776 417.784 92.2284 418.148C92.3791 418.512 92.6001 418.843 92.8787 419.121C93.1573 419.4 93.488 419.621 93.852 419.772C94.2159 419.922 94.606 420 95 420V417H92Z" fill="white"/>
<path d="M141 420C141.394 420 141.784 419.922 142.148 419.772C142.512 419.621 142.843 419.4 143.121 419.121C143.4 418.843 143.621 418.512 143.772 418.148C143.922 417.784 144 417.394 144 417H141V420Z" fill="white"/>
<path d="M138 417C138 417.394 138.078 417.784 138.228 418.148C138.379 418.512 138.6 418.843 138.879 419.121C139.157 419.4 139.488 419.621 139.852 419.772C140.216 419.922 140.606 420 141 420V417H138Z" fill="white"/>
<path d="M187 420C187.394 420 187.784 419.922 188.148 419.772C188.512 419.621 188.843 419.4 189.121 419.121C189.4 418.843 189.621 418.512 189.772 418.148C189.922 417.784 190 417.394 190 417H187V420Z" fill="white"/>
<path d="M184 417C184 417.394 184.078 417.784 184.228 418.148C184.379 418.512 184.6 418.843 184.879 419.121C185.157 419.4 185.488 419.621 185.852 419.772C186.216 419.922 186.606 420 187 420V417H184Z" fill="white"/>
<path d="M233 420C233.394 420 233.784 419.922 234.148 419.772C234.512 419.621 234.843 419.4 235.121 419.121C235.4 418.843 235.621 418.512 235.772 418.148C235.922 417.784 236 417.394 236 417H233V420Z" fill="white"/>
<path d="M230 417C230 417.394 230.078 417.784 230.228 418.148C230.379 418.512 230.6 418.843 230.879 419.121C231.157 419.4 231.488 419.621 231.852 419.772C232.216 419.922 232.606 420 233 420V417H230Z" fill="white"/>
<path d="M279 420C279.394 420 279.784 419.922 280.148 419.772C280.512 419.621 280.843 419.4 281.121 419.121C281.4 418.843 281.621 418.512 281.772 418.148C281.922 417.784 282 417.394 282 417H279V420Z" fill="white"/>
<path d="M276 417C276 417.394 276.078 417.784 276.228 418.148C276.379 418.512 276.6 418.843 276.879 419.121C277.157 419.4 277.488 419.621 277.852 419.772C278.216 419.922 278.606 420 279 420V417H276Z" fill="white"/>
<path d="M325 420C325.394 420 325.784 419.922 326.148 419.772C326.512 419.621 326.843 419.4 327.121 419.121C327.4 418.843 327.621 418.512 327.772 418.148C327.922 417.784 328 417.394 328 417H325V420Z" fill="white"/>
<path d="M322 417C322 417.394 322.078 417.784 322.228 418.148C322.379 418.512 322.6 418.843 322.879 419.121C323.157 419.4 323.488 419.621 323.852 419.772C324.216 419.922 324.606 420 325 420V417H322Z" fill="white"/>
<path d="M371 420C371.394 420 371.784 419.922 372.148 419.772C372.512 419.621 372.843 419.4 373.121 419.121C373.4 418.843 373.621 418.512 373.772 418.148C373.922 417.784 374 417.394 374 417H371V420Z" fill="white"/>
<path d="M368 417C368 417.394 368.078 417.784 368.228 418.148C368.379 418.512 368.6 418.843 368.879 419.121C369.157 419.4 369.488 419.621 369.852 419.772C370.216 419.922 370.606 420 371 420V417H368Z" fill="white"/>
<path d="M417 420C417.394 420 417.784 419.922 418.148 419.772C418.512 419.621 418.843 419.4 419.121 419.121C419.4 418.843 419.621 418.512 419.772 418.148C419.922 417.784 420 417.394 420 417H417V420Z" fill="white"/>
<path d="M420 417C420 416.606 419.922 416.216 419.772 415.852C419.621 415.488 419.4 415.157 419.121 414.879C418.843 414.6 418.512 414.379 418.148 414.228C417.784 414.078 417.394 414 417 414V417H420Z" fill="white"/>
<path d="M414 417C414 417.394 414.078 417.784 414.228 418.148C414.379 418.512 414.6 418.843 414.879 419.121C415.157 419.4 415.488 419.621 415.852 419.772C416.216 419.922 416.606 420 417 420V417H414Z" fill="white"/>
</svg>
