<svg width="24" height="25" viewBox="0 0 24 25" fill="none" xmlns="http://www.w3.org/2000/svg">
<g clip-path="url(#clip0_31_123)">
<path d="M8.15156 19.1256C8.15156 19.2193 8.04375 19.2943 7.90781 19.2943C7.75312 19.3084 7.64531 19.2334 7.64531 19.1256C7.64531 19.0318 7.75313 18.9568 7.88906 18.9568C8.02969 18.9428 8.15156 19.0178 8.15156 19.1256ZM6.69375 18.9147C6.66094 19.0084 6.75469 19.1162 6.89531 19.1443C7.01719 19.1912 7.15781 19.1443 7.18594 19.0506C7.21406 18.9568 7.125 18.849 6.98438 18.8068C6.8625 18.774 6.72656 18.8209 6.69375 18.9147ZM8.76562 18.835C8.62969 18.8678 8.53594 18.9568 8.55 19.0647C8.56406 19.1584 8.68594 19.2193 8.82656 19.1865C8.9625 19.1537 9.05625 19.0647 9.04219 18.9709C9.02812 18.8818 8.90156 18.8209 8.76562 18.835ZM11.85 0.872467C5.34844 0.872467 0.375 5.8084 0.375 12.31C0.375 17.5084 3.64688 21.9568 8.32031 23.5225C8.92031 23.6303 9.13125 23.26 9.13125 22.9553C9.13125 22.6647 9.11719 21.0615 9.11719 20.0772C9.11719 20.0772 5.83594 20.7803 5.14688 18.6803C5.14688 18.6803 4.6125 17.3162 3.84375 16.9647C3.84375 16.9647 2.77031 16.2287 3.91875 16.2428C3.91875 16.2428 5.08594 16.3365 5.72812 17.4522C6.75469 19.2615 8.475 18.7412 9.14531 18.4318C9.25313 17.6818 9.55781 17.1615 9.89531 16.8522C7.275 16.5615 4.63125 16.1818 4.63125 11.6725C4.63125 10.3834 4.9875 9.73653 5.7375 8.91153C5.61562 8.60684 5.21719 7.35059 5.85938 5.72872C6.83906 5.42403 9.09375 6.99434 9.09375 6.99434C10.0312 6.73184 11.0391 6.5959 12.0375 6.5959C13.0359 6.5959 14.0438 6.73184 14.9813 6.99434C14.9813 6.99434 17.2359 5.41934 18.2156 5.72872C18.8578 7.35528 18.4594 8.60684 18.3375 8.91153C19.0875 9.74122 19.5469 10.3881 19.5469 11.6725C19.5469 16.1959 16.7859 16.5568 14.1656 16.8522C14.5969 17.2225 14.9625 17.9256 14.9625 19.0272C14.9625 20.6068 14.9484 22.5615 14.9484 22.9459C14.9484 23.2506 15.1641 23.6209 15.7594 23.5131C20.4469 21.9568 23.625 17.5084 23.625 12.31C23.625 5.8084 18.3516 0.872467 11.85 0.872467ZM4.93125 17.0397C4.87031 17.0865 4.88438 17.1943 4.96406 17.2834C5.03906 17.3584 5.14687 17.3912 5.20781 17.3303C5.26875 17.2834 5.25469 17.1756 5.175 17.0865C5.1 17.0115 4.99219 16.9787 4.93125 17.0397ZM4.425 16.66C4.39219 16.7209 4.43906 16.7959 4.53281 16.8428C4.60781 16.8897 4.70156 16.8756 4.73438 16.81C4.76719 16.749 4.72031 16.674 4.62656 16.6272C4.53281 16.599 4.45781 16.6131 4.425 16.66ZM5.94375 18.3287C5.86875 18.3897 5.89687 18.5303 6.00469 18.6193C6.1125 18.7272 6.24844 18.7412 6.30937 18.6662C6.37031 18.6053 6.34219 18.4647 6.24844 18.3756C6.14531 18.2678 6.00469 18.2537 5.94375 18.3287ZM5.40938 17.6397C5.33437 17.6865 5.33437 17.8084 5.40938 17.9162C5.48438 18.024 5.61094 18.0709 5.67188 18.024C5.74687 17.9631 5.74687 17.8412 5.67188 17.7334C5.60625 17.6256 5.48438 17.5787 5.40938 17.6397Z" fill="white"/>
</g>
<defs>
<clipPath id="clip0_31_123">
<rect width="23.25" height="24" fill="white" transform="translate(0.375 0.497467)"/>
</clipPath>
</defs>
</svg>
