<svg xmlns="http://www.w3.org/2000/svg" width="1920" height="1080" preserveAspectRatio="none"><g fill="none" mask="url(&quot;#SvgjsMask1039&quot;)"><path fill="#0e2a47" d="M0 0h1920v1080H0z"/><path fill="rgba(28, 83, 142, 0.4)" d="m-8.85 612.638 205.47 118.629L315.25 525.796 109.778 407.167z" class="triangle-float3"/><path fill="rgba(28, 83, 142, 0.4)" d="M1778.031 366.385c37.786-2.474 67.872-26.623 88.437-58.419 23.063-35.659 42.986-78.037 24.565-116.301-20.39-42.354-65.998-67.913-113.002-67.398-46.183.506-86.093 29.606-108.795 69.827-22.294 39.498-26.481 88.583-2.264 126.933 22.883 36.239 68.292 48.158 111.059 45.358M964.732 609.73c63.215-2.571 103.175-59.147 136.317-113.039 35.565-57.833 75.532-122.879 46.509-184.256-32.125-67.936-107.734-106.957-182.826-104.019-70.739 2.768-126.813 54.684-159.617 117.418-30.262 57.874-29.365 125.857 2.642 182.785 32.693 58.148 90.321 103.822 156.975 101.111" class="triangle-float1"/><path fill="rgba(28, 83, 142, 0.4)" d="M1396.414 883.62c39.019-3.552 63.356-37.983 82.646-72.085 18.88-33.377 35.083-71.491 17.986-105.816-18.671-37.484-58.792-61.855-100.632-60.105-39.416 1.649-66.295 34.398-87.035 67.956-22.32 36.114-45.897 78.036-26.554 115.829 20.488 40.03 68.806 58.298 113.589 54.221" class="triangle-float2"/><path fill="rgba(28, 83, 142, 0.4)" d="M486.008 813.961c44.237 3.927 86.775-21.276 109.027-59.71 22.297-38.511 20.377-86.279-2.355-124.535-22.243-37.432-63.135-59.614-106.672-58.946-42.406.65-82.809 23.894-101.153 62.133-16.487 34.368 2.59 71.295 21.181 104.572 19.282 34.514 40.592 72.991 79.972 76.486" class="triangle-float1"/><path fill="rgba(28, 83, 142, 0.4)" d="M1149.563 403.901c28.274-1.653 48.409-24.601 61.93-49.487 12.778-23.519 18.767-51.44 5.549-74.715-13.358-23.522-40.466-32.923-67.479-34.337-30.392-1.591-64.386 1.027-80.936 26.568-17.617 27.188-11.884 62.922 5.053 90.539 16.148 26.331 45.048 43.234 75.883 41.432M733.18 708.61l-172.79 229.3 229.3 172.79 172.79-229.3z" class="triangle-float2"/><path fill="rgba(28, 83, 142, 0.4)" d="m1664.282 227.796 242.433 38.398 38.398-242.434-242.433-38.398zM1251.084 1134.104c111.66 1.417 215.879-58.076 271.469-154.925 55.352-96.434 53.746-216.134-3.917-311.204-55.639-91.732-160.44-142.491-267.552-136.371-97.734 5.584-169.661 79.856-219.363 164.193-50.713 86.053-85.136 187.319-40.432 276.642 48.926 97.759 150.485 160.278 259.795 161.665" class="triangle-float3"/><path fill="rgba(28, 83, 142, 0.4)" d="M1128.863 680.981c85.395.605 166.058-42.995 208.328-117.197 41.868-73.496 38.745-165.35-6.747-236.66-42.41-66.479-122.937-95.658-201.581-89.896-69.342 5.081-119.198 57.23-156.179 116.108-40.438 64.383-79.81 138.9-47.096 207.531 36.297 76.146 118.923 119.516 203.275 120.114" class="triangle-float3"/></g><defs><style>@keyframes float1{0%,to{transform:translate(0,0)}50%{transform:translate(-10px,0)}}@keyframes float2{0%,to{transform:translate(0,0)}50%{transform:translate(-5px,-5px)}}@keyframes float3{0%,to{transform:translate(0,0)}50%{transform:translate(0,-10px)}}.triangle-float1{animation:float1 5s infinite}.triangle-float2{animation:float2 4s infinite}.triangle-float3{animation:float3 6s infinite}</style><mask id="SvgjsMask1039"><path fill="#fff" d="M0 0h1920v1080H0z"/></mask></defs></svg>